<svg width="1600" height="956" viewBox="0 0 1600 956" fill="none" xmlns="http://www.w3.org/2000/svg">
<path d="M1600 0H0V956H1600V0Z" fill="url(#paint0_radial_202_2)"/>
<path opacity="0.7" d="M220.439 275.164C220.439 276.367 219.837 276.969 218.632 276.969C217.428 276.969 216.825 276.367 216.825 275.164C216.825 273.96 217.428 273.359 218.632 273.359C219.235 273.359 220.439 273.96 220.439 275.164Z" fill="white"/>
<path opacity="0.7" d="M294.521 275.164C294.521 275.766 293.918 276.367 293.316 276.367C292.714 276.367 292.111 275.766 292.111 275.164C292.111 274.562 292.714 273.961 293.316 273.961C293.918 273.359 294.521 273.961 294.521 275.164Z" fill="white"/>
<path opacity="0.7" d="M148.165 372.023C148.165 372.625 147.563 373.226 146.961 373.226C146.359 373.226 145.756 372.625 145.756 372.023C145.756 371.421 146.359 370.82 146.961 370.82C147.563 370.82 148.165 371.421 148.165 372.023Z" fill="white"/>
<path opacity="0.7" d="M982.945 298.627C982.945 299.228 982.343 299.83 981.741 299.83C981.138 299.83 980.536 299.228 980.536 298.627C980.536 298.025 981.138 297.423 981.741 297.423C982.343 297.423 982.945 298.025 982.945 298.627Z" fill="white"/>
<path opacity="0.7" d="M310.183 203.572C310.183 204.174 309.581 204.775 308.979 204.775C308.376 204.775 307.774 204.174 307.774 203.572C307.774 202.97 308.376 202.369 308.979 202.369C309.581 202.369 310.183 202.97 310.183 203.572Z" fill="white"/>
<path opacity="0.7" d="M307.772 243.88C307.772 244.481 307.17 245.083 306.568 245.083C305.965 245.083 305.363 244.481 305.363 243.88C305.363 243.278 305.965 242.676 306.568 242.676C307.17 242.676 307.772 243.278 307.772 243.88Z" fill="white"/>
<path opacity="0.7" d="M362.583 33.9175C362.583 35.1207 361.98 35.7223 360.776 35.7223C359.571 35.7223 358.969 35.1207 358.969 33.9175C358.969 32.7143 359.571 32.1127 360.776 32.1127C361.98 32.1127 362.583 33.3159 362.583 33.9175Z" fill="white"/>
<path opacity="0.7" d="M369.205 317.276C369.205 318.48 368 319.683 366.796 319.683C365.591 319.683 364.387 318.48 364.387 317.276C364.387 316.073 365.591 314.87 366.796 314.87C368.603 314.87 369.205 316.073 369.205 317.276Z" fill="white"/>
<path opacity="0.7" d="M262.604 15.87C262.604 17.0732 261.399 18.2764 260.195 18.2764C258.99 18.2764 257.786 17.0732 257.786 15.87C257.786 14.6668 258.99 13.4636 260.195 13.4636C261.399 13.4636 262.604 14.0652 262.604 15.87Z" fill="white"/>
<path opacity="0.7" d="M62.6409 215.605C62.6409 216.808 61.4363 218.011 60.2317 218.011C59.0272 218.011 57.8226 216.808 57.8226 215.605C57.8226 214.401 59.0272 213.198 60.2317 213.198C61.4363 213.198 62.6409 214.401 62.6409 215.605Z" fill="white"/>
<path opacity="0.7" d="M28.3098 405.112C28.3098 406.315 27.1052 407.518 25.9006 407.518C24.696 407.518 23.4915 406.315 23.4915 405.112C23.4915 403.909 24.696 402.706 25.9006 402.706C27.7075 402.706 28.3098 403.909 28.3098 405.112Z" fill="white"/>
<path opacity="0.7" d="M145.757 228.84C145.757 230.043 144.552 231.246 143.348 231.246C142.143 231.246 140.938 230.043 140.938 228.84C140.938 227.637 142.143 226.433 143.348 226.433C144.552 226.433 145.757 227.637 145.757 228.84Z" fill="white"/>
<path opacity="0.7" d="M92.7566 390.673C92.7566 391.876 92.1543 392.477 90.9497 392.477C89.7451 392.477 89.1428 391.876 89.1428 390.673C89.1428 389.469 89.7451 388.868 90.9497 388.868C92.1543 388.868 92.7566 389.469 92.7566 390.673Z" fill="white"/>
<path opacity="0.7" d="M124.678 150.028C124.678 151.232 124.075 151.833 122.871 151.833C121.666 151.833 121.064 151.232 121.064 150.028C121.064 148.825 121.666 148.224 122.871 148.224C124.075 148.224 124.678 149.427 124.678 150.028Z" fill="white"/>
<path opacity="0.7" d="M63.2437 4.43924C63.2437 5.04085 62.6414 5.64246 62.0391 5.64246C61.4368 5.64246 60.8345 5.04085 60.8345 4.43924C60.8345 3.83763 61.4368 3.23601 62.0391 3.23601C62.6414 2.6344 63.2437 3.23602 63.2437 4.43924Z" fill="white"/>
<path opacity="0.7" d="M768.526 102.501C768.526 103.103 767.923 103.705 767.321 103.705C766.719 103.705 766.116 103.103 766.116 102.501C766.116 101.9 766.719 101.298 767.321 101.298C767.923 101.298 768.526 101.298 768.526 102.501Z" fill="white"/>
<path opacity="0.7" d="M218.034 80.844C218.034 81.4456 217.431 82.0472 216.829 82.0472C216.227 82.0472 215.625 81.4456 215.625 80.844C215.625 80.2424 216.227 79.6407 216.829 79.6407C217.431 79.6407 218.034 80.2424 218.034 80.844Z" fill="white"/>
<path opacity="0.7" d="M613.135 429.184C613.135 429.786 612.533 430.387 611.931 430.387C611.329 430.387 610.726 429.786 610.726 429.184C610.726 428.583 611.329 427.981 611.931 427.981C612.533 427.981 613.135 428.583 613.135 429.184Z" fill="white"/>
<path opacity="0.7" d="M271.034 153.037C271.034 153.639 270.432 154.24 269.83 154.24C269.228 154.24 268.625 153.639 268.625 153.037C268.625 152.436 269.228 151.834 269.83 151.834C270.432 151.834 271.034 152.436 271.034 153.037Z" fill="white"/>
<path opacity="0.7" d="M174.063 420.754C174.063 421.355 173.461 421.957 172.858 421.957C172.256 421.957 171.654 421.355 171.654 420.754C171.654 420.152 172.256 419.551 172.858 419.551C173.461 419.551 174.063 420.152 174.063 420.754Z" fill="white"/>
<path opacity="0.7" d="M186.712 30.9104C186.712 32.1136 185.507 33.3168 184.303 33.3168C183.098 33.3168 181.893 32.1136 181.893 30.9104C181.893 29.7071 183.098 28.5039 184.303 28.5039C185.507 28.5039 186.712 29.7071 186.712 30.9104Z" fill="white"/>
<path opacity="0.7" d="M703.477 86.8591C703.477 88.0623 702.273 89.2655 701.068 89.2655C699.863 89.2655 698.659 88.0623 698.659 86.8591C698.659 85.6558 699.863 84.4526 701.068 84.4526C702.875 84.4526 703.477 85.0542 703.477 86.8591Z" fill="white"/>
<path opacity="0.7" d="M30.1171 370.819C30.1171 372.023 29.5148 372.624 28.3102 372.624C27.1056 372.624 26.5034 372.023 26.5034 370.819C26.5034 369.616 27.1056 369.015 28.3102 369.015C29.5148 369.015 30.1171 369.616 30.1171 370.819Z" fill="white"/>
<path opacity="0.7" d="M308.979 369.016C308.979 370.82 307.172 372.625 305.365 372.625C303.558 372.625 301.751 370.82 301.751 369.016C301.751 367.211 303.558 365.406 305.365 365.406C307.172 366.007 308.979 367.211 308.979 369.016Z" fill="white"/>
<path opacity="0.7" d="M201.166 307.048C201.166 307.65 200.564 308.251 199.961 308.251C199.359 308.251 198.757 307.65 198.757 307.048C198.757 306.447 199.359 305.845 199.961 305.845C200.564 305.243 201.166 305.845 201.166 307.048Z" fill="white"/>
<path opacity="0.7" d="M275.251 407.518C275.251 408.119 274.649 408.721 274.047 408.721C273.444 408.721 272.842 408.119 272.842 407.518C272.842 406.916 273.444 406.314 274.047 406.314C274.649 406.314 275.251 406.916 275.251 407.518Z" fill="white"/>
<path opacity="0.7" d="M857.063 270.952C857.063 271.554 856.461 272.156 855.859 272.156C855.256 272.156 854.654 271.554 854.654 270.952C854.654 270.351 855.256 269.749 855.859 269.749C856.461 269.749 857.063 270.351 857.063 270.952Z" fill="white"/>
<path opacity="0.7" d="M893.201 401.502C893.201 402.103 892.599 402.705 891.997 402.705C891.394 402.705 890.792 402.103 890.792 401.502C890.792 400.9 891.394 400.298 891.997 400.298C892.599 400.298 893.201 400.9 893.201 401.502Z" fill="white"/>
<path opacity="0.7" d="M711.308 393.681C711.308 394.283 710.706 394.885 710.103 394.885C709.501 394.885 708.899 394.283 708.899 393.681C708.899 393.08 709.501 392.478 710.103 392.478C710.706 392.478 711.308 393.08 711.308 393.681Z" fill="white"/>
<path opacity="0.7" d="M964.875 341.341C964.875 341.943 964.273 342.545 963.671 342.545C963.069 342.545 962.466 341.943 962.466 341.341C962.466 340.74 963.069 340.138 963.671 340.138C964.273 339.536 964.875 340.138 964.875 341.341Z" fill="white"/>
<path opacity="0.7" d="M861.884 351.568C861.884 352.771 860.68 353.974 859.475 353.974C858.271 353.974 857.066 352.771 857.066 351.568C857.066 350.365 858.271 349.161 859.475 349.161C860.68 349.161 861.884 350.365 861.884 351.568Z" fill="white"/>
<path opacity="0.7" d="M820.924 228.84C820.924 230.043 819.72 231.246 818.515 231.246C817.311 231.246 816.106 230.043 816.106 228.84C816.106 227.637 817.311 226.433 818.515 226.433C819.72 226.433 820.924 227.637 820.924 228.84Z" fill="white"/>
<path opacity="0.7" d="M861.281 414.738C861.281 415.339 860.679 415.941 860.077 415.941C859.474 415.941 858.872 415.339 858.872 414.738C858.872 414.136 859.474 413.534 860.077 413.534C860.679 413.534 861.281 414.136 861.281 414.738Z" fill="white"/>
<path opacity="0.7" d="M893.201 80.844C893.201 81.4456 892.599 82.0472 891.997 82.0472C891.394 82.0472 890.792 81.4456 890.792 80.844C890.792 80.2424 891.394 79.6407 891.997 79.6407C892.599 79.6407 893.201 80.2424 893.201 80.844Z" fill="white"/>
<path opacity="0.7" d="M885.972 160.256C885.972 160.858 885.37 161.46 884.768 161.46C884.166 161.46 883.563 160.858 883.563 160.256C883.563 159.655 884.166 159.053 884.768 159.053C885.37 159.053 885.972 159.655 885.972 160.256Z" fill="white"/>
<path opacity="0.7" d="M823.337 51.9658C823.337 52.5674 822.735 53.1691 822.133 53.1691C821.53 53.1691 820.928 52.5674 820.928 51.9658C820.928 51.3642 821.53 50.7626 822.133 50.7626C822.735 50.161 823.337 50.7626 823.337 51.9658Z" fill="white"/>
<path opacity="0.7" d="M861.884 30.9104C861.884 32.1136 860.68 33.3168 859.475 33.3168C858.271 33.3168 857.066 32.1136 857.066 30.9104C857.066 29.7071 858.271 28.5039 859.475 28.5039C860.68 28.5039 861.884 29.7071 861.884 30.9104Z" fill="white"/>
<path opacity="0.7" d="M760.695 211.994C760.695 213.198 759.49 214.401 758.286 214.401C757.081 214.401 755.876 213.198 755.876 211.994C755.876 210.791 757.081 209.588 758.286 209.588C759.49 209.588 760.695 210.791 760.695 211.994Z" fill="white"/>
<path opacity="0.7" d="M729.376 305.846C729.376 306.447 728.774 307.049 728.172 307.049C727.57 307.049 726.967 306.447 726.967 305.846C726.967 305.244 727.57 304.643 728.172 304.643C728.774 304.643 729.376 305.244 729.376 305.846Z" fill="white"/>
<path opacity="0.7" d="M69.2661 417.746C69.2661 418.949 68.6638 419.55 67.4592 419.55C66.2546 419.55 65.6523 418.949 65.6523 417.746C65.6523 416.542 66.2546 415.941 67.4592 415.941C68.6638 415.941 69.2661 416.542 69.2661 417.746Z" fill="white"/>
<path opacity="0.7" d="M543.873 276.367C543.873 278.171 542.066 279.976 540.259 279.976C538.452 279.976 536.645 278.171 536.645 276.367C536.645 274.562 538.452 272.757 540.259 272.757C542.066 273.358 543.873 274.562 543.873 276.367Z" fill="white"/>
<path opacity="0.7" d="M501.711 270.952C501.711 271.554 501.109 272.156 500.507 272.156C499.905 272.156 499.302 271.554 499.302 270.952C499.302 270.351 499.905 269.749 500.507 269.749C501.109 269.749 501.711 270.351 501.711 270.952Z" fill="white"/>
<path opacity="0.7" d="M427.63 127.769C427.63 128.371 427.028 128.973 426.426 128.973C425.824 128.973 425.221 128.371 425.221 127.769C425.221 127.168 425.824 126.566 426.426 126.566C427.028 125.964 427.63 126.566 427.63 127.769Z" fill="white"/>
<path opacity="0.7" d="M538.449 401.502C538.449 402.103 537.847 402.705 537.245 402.705C536.643 402.705 536.04 402.103 536.04 401.502C536.04 400.9 536.643 400.298 537.245 400.298C537.847 400.298 538.449 400.9 538.449 401.502Z" fill="white"/>
<path opacity="0.7" d="M468.585 372.023C468.585 372.625 467.983 373.226 467.381 373.226C466.778 373.226 466.176 372.625 466.176 372.023C466.176 371.421 466.778 370.82 467.381 370.82C467.983 370.82 468.585 371.421 468.585 372.023Z" fill="white"/>
<path opacity="0.7" d="M628.193 421.355C628.193 421.956 627.591 422.558 626.989 422.558C626.386 422.558 625.784 421.956 625.784 421.355C625.784 420.753 626.386 420.152 626.989 420.152C627.591 420.152 628.193 420.753 628.193 421.355Z" fill="white"/>
<path opacity="0.7" d="M436.06 343.145C436.06 343.746 435.458 344.348 434.855 344.348C434.253 344.348 433.651 343.746 433.651 343.145C433.651 342.543 434.253 341.942 434.855 341.942C435.458 341.34 436.06 341.942 436.06 343.145Z" fill="white"/>
<path opacity="0.7" d="M628.193 243.88C628.193 244.481 627.591 245.083 626.989 245.083C626.386 245.083 625.784 244.481 625.784 243.88C625.784 243.278 626.386 242.676 626.989 242.676C627.591 242.676 628.193 243.278 628.193 243.88Z" fill="white"/>
<path opacity="0.7" d="M492.677 211.994C492.677 212.596 492.074 213.197 491.472 213.197C490.87 213.197 490.267 212.596 490.267 211.994C490.267 211.393 490.87 210.791 491.472 210.791C492.074 210.791 492.677 211.393 492.677 211.994Z" fill="white"/>
<path opacity="0.7" d="M343.913 276.366C343.913 277.57 342.708 278.773 341.504 278.773C340.299 278.773 339.094 277.57 339.094 276.366C339.094 275.163 340.299 273.96 341.504 273.96C342.708 273.96 343.913 275.163 343.913 276.366Z" fill="white"/>
<path opacity="0.7" d="M368.605 243.88C368.605 245.083 367.401 246.287 366.196 246.287C364.991 246.287 363.787 245.083 363.787 243.88C363.787 242.677 364.991 241.474 366.196 241.474C367.401 241.474 368.605 242.677 368.605 243.88Z" fill="white"/>
<path opacity="0.7" d="M348.731 405.112C348.731 406.315 347.526 407.518 346.321 407.518C345.117 407.518 343.912 406.315 343.912 405.112C343.912 403.909 345.117 402.706 346.321 402.706C347.526 402.706 348.731 403.909 348.731 405.112Z" fill="white"/>
<path opacity="0.7" d="M465.572 228.84C465.572 230.043 464.367 231.246 463.162 231.246C461.958 231.246 460.753 230.043 460.753 228.84C460.753 227.637 461.958 226.433 463.162 226.433C464.367 226.433 465.572 227.637 465.572 228.84Z" fill="white"/>
<path opacity="0.7" d="M413.172 390.673C413.172 391.876 412.57 392.477 411.365 392.477C410.161 392.477 409.558 391.876 409.558 390.673C409.558 389.469 410.161 388.868 411.365 388.868C412.57 388.868 413.172 389.469 413.172 390.673Z" fill="white"/>
<path opacity="0.7" d="M588.44 321.487C588.44 323.292 586.633 325.097 584.826 325.097C583.019 325.097 581.212 323.292 581.212 321.487C581.212 319.683 583.019 317.878 584.826 317.878C587.235 317.878 588.44 319.081 588.44 321.487Z" fill="white"/>
<path opacity="0.7" d="M416.789 198.76C416.789 199.963 416.187 200.564 414.982 200.564C413.778 200.564 413.175 199.963 413.175 198.76C413.175 197.556 413.778 196.955 414.982 196.955C415.585 196.955 416.789 197.556 416.789 198.76Z" fill="white"/>
<path opacity="0.7" d="M383.665 4.43924C383.665 5.04085 383.062 5.64246 382.46 5.64246C381.858 5.64246 381.255 5.04085 381.255 4.43924C381.255 3.83763 381.858 3.23601 382.46 3.23601C383.062 2.6344 383.665 3.23602 383.665 4.43924Z" fill="white"/>
<path opacity="0.7" d="M384.864 128.973C384.864 129.574 384.262 130.176 383.66 130.176C383.057 130.176 382.455 129.574 382.455 128.973C382.455 128.371 383.057 127.769 383.66 127.769C384.262 127.769 384.864 128.371 384.864 128.973Z" fill="white"/>
<path opacity="0.7" d="M538.449 80.844C538.449 81.4456 537.847 82.0472 537.245 82.0472C536.643 82.0472 536.04 81.4456 536.04 80.844C536.04 80.2424 536.643 79.6407 537.245 79.6407C537.847 79.6407 538.449 80.2424 538.449 80.844Z" fill="white"/>
<path opacity="0.7" d="M531.226 160.256C531.226 160.858 530.623 161.46 530.021 161.46C529.419 161.46 528.817 160.858 528.817 160.256C528.817 159.655 529.419 159.053 530.021 159.053C530.623 159.053 531.226 159.655 531.226 160.256Z" fill="white"/>
<path opacity="0.7" d="M468.585 51.9658C468.585 52.5674 467.983 53.1691 467.381 53.1691C466.778 53.1691 466.176 52.5674 466.176 51.9658C466.176 51.3642 466.778 50.7626 467.381 50.7626C467.983 50.161 468.585 50.7626 468.585 51.9658Z" fill="white"/>
<path opacity="0.7" d="M590.25 154.24C590.916 154.24 591.455 153.702 591.455 153.037C591.455 152.373 590.916 151.834 590.25 151.834C589.585 151.834 589.046 152.373 589.046 153.037C589.046 153.702 589.585 154.24 590.25 154.24Z" fill="white"/>
<path opacity="0.7" d="M436.665 22.4869C436.665 23.0885 436.063 23.6901 435.46 23.6901C434.858 23.6901 434.256 23.0885 434.256 22.4869C434.256 21.8853 434.858 21.2837 435.46 21.2837C436.063 21.2837 436.665 21.8853 436.665 22.4869Z" fill="white"/>
<path opacity="0.7" d="M33.7309 8.65C33.7309 10.4548 31.924 12.2597 30.1171 12.2597C28.3102 12.2597 26.5034 10.4548 26.5034 8.65C26.5034 6.84517 28.3102 5.04034 30.1171 5.04034C32.5263 5.04034 33.7309 6.84517 33.7309 8.65Z" fill="white"/>
<path opacity="0.7" d="M506.531 30.9104C506.531 32.1136 505.327 33.3168 504.122 33.3168C502.918 33.3168 501.713 32.1136 501.713 30.9104C501.713 29.7071 502.918 28.5039 504.122 28.5039C505.327 28.5039 506.531 29.7071 506.531 30.9104Z" fill="white"/>
<path opacity="0.7" d="M486.052 157.849C486.052 159.052 484.847 160.256 483.643 160.256C482.438 160.256 481.234 159.052 481.234 157.849C481.234 156.646 482.438 155.443 483.643 155.443C485.45 155.443 486.052 156.646 486.052 157.849Z" fill="white"/>
<path opacity="0.7" d="M445.697 125.964C445.697 127.167 444.492 128.37 443.288 128.37C442.083 128.37 440.879 127.167 440.879 125.964C440.879 124.761 442.083 123.557 443.288 123.557C445.095 123.557 445.697 124.159 445.697 125.964Z" fill="white"/>
<path opacity="0.7" d="M348.731 85.055C348.731 86.2582 347.526 87.4615 346.321 87.4615C345.117 87.4615 343.912 86.2582 343.912 85.055C343.912 83.8518 345.117 82.6486 346.321 82.6486C347.526 82.6486 348.731 83.2502 348.731 85.055Z" fill="white"/>
<path opacity="0.7" d="M413.172 70.0141C413.172 71.2173 412.57 71.8189 411.365 71.8189C410.161 71.8189 409.558 71.2173 409.558 70.0141C409.558 68.8108 410.161 68.2092 411.365 68.2092C412.57 68.2092 413.172 69.4125 413.172 70.0141Z" fill="white"/>
<path opacity="0.7" d="M382.457 156.045C382.457 157.248 381.855 157.85 380.65 157.85C379.446 157.85 378.843 157.248 378.843 156.045C378.843 154.842 379.446 154.24 380.65 154.24C381.252 154.24 382.457 154.842 382.457 156.045Z" fill="white"/>
<path opacity="0.7" d="M490.269 115.135C490.269 116.338 489.667 116.94 488.462 116.94C487.258 116.94 486.656 116.338 486.656 115.135C486.656 113.932 487.258 113.33 488.462 113.33C489.065 113.33 490.269 113.932 490.269 115.135Z" fill="white"/>
<path opacity="0.7" d="M341.5 148.223C341.5 150.028 339.693 151.833 337.886 151.833C336.079 151.833 334.272 150.028 334.272 148.223C334.272 146.419 336.079 144.614 337.886 144.614C340.295 144.614 341.5 146.419 341.5 148.223Z" fill="white"/>
<path opacity="0.7" d="M518.575 353.974C518.575 354.576 517.973 355.178 517.37 355.178C516.768 355.178 516.166 354.576 516.166 353.974C516.166 353.373 516.768 352.771 517.37 352.771C517.973 352.771 518.575 353.373 518.575 353.974Z" fill="white"/>
<path opacity="0.7" d="M389.081 417.746C389.081 418.949 388.478 419.55 387.274 419.55C386.069 419.55 385.467 418.949 385.467 417.746C385.467 416.542 386.069 415.941 387.274 415.941C388.478 415.941 389.081 416.542 389.081 417.746Z" fill="white"/>
<path opacity="0.7" d="M571.575 57.3805C571.575 57.9821 570.973 58.5837 570.371 58.5837C569.769 58.5837 569.166 57.9821 569.166 57.3805C569.166 56.7789 569.769 56.1772 570.371 56.1772C570.973 56.1772 571.575 56.7789 571.575 57.3805Z" fill="white"/>
<path opacity="0.7" d="M557.124 205.978C557.124 207.783 555.318 209.588 553.511 209.588C551.704 209.588 549.897 207.783 549.897 205.978C549.897 204.174 551.704 202.369 553.511 202.369C555.318 202.369 557.124 204.174 557.124 205.978Z" fill="white"/>
<path opacity="0.7" d="M590.852 150.63C590.852 151.833 589.648 153.037 588.443 153.037C587.239 153.037 586.034 151.833 586.034 150.63C586.034 149.427 587.239 148.224 588.443 148.224C590.25 148.224 590.852 149.427 590.852 150.63Z" fill="white"/>
<path opacity="0.7" d="M632.408 57.3806C632.408 58.5838 631.204 59.787 629.999 59.787C628.794 59.787 627.59 58.5838 627.59 57.3806C627.59 56.1774 628.794 54.9741 629.999 54.9741C631.806 54.9741 632.408 56.1774 632.408 57.3806Z" fill="white"/>
<path opacity="0.7" d="M612.533 219.214C612.533 220.417 611.328 221.62 610.124 221.62C608.919 221.62 607.714 220.417 607.714 219.214C607.714 218.01 608.919 216.807 610.124 216.807C611.328 216.807 612.533 218.01 612.533 219.214Z" fill="white"/>
<path opacity="0.7" d="M653.489 231.246C653.489 232.449 652.887 233.051 651.682 233.051C650.478 233.051 649.875 232.449 649.875 231.246C649.875 230.043 650.478 229.441 651.682 229.441C652.285 229.441 653.489 230.644 653.489 231.246Z" fill="white"/>
<path opacity="0.7" d="M828.757 161.459C828.757 160.858 829.359 160.256 829.961 160.256C830.564 160.256 831.166 160.858 831.166 161.459C831.166 162.061 830.564 162.663 829.961 162.663C829.359 163.264 828.757 162.663 828.757 161.459Z" fill="white"/>
<path opacity="0.7" d="M792.62 30.9102C792.62 30.3086 793.222 29.707 793.824 29.707C794.427 29.707 795.029 30.3086 795.029 30.9102C795.029 31.5118 794.427 32.1134 793.824 32.1134C793.222 32.1134 792.62 32.1134 792.62 30.9102Z" fill="white"/>
<path opacity="0.7" d="M702.276 189.134C702.276 188.532 702.878 187.931 703.481 187.931C704.083 187.931 704.685 188.532 704.685 189.134C704.685 189.735 704.083 190.337 703.481 190.337C702.878 190.337 702.276 189.735 702.276 189.134Z" fill="white"/>
<path opacity="0.7" d="M717.333 40.5357C717.333 38.7309 719.139 36.9261 720.946 36.9261C722.753 36.9261 724.56 38.7309 724.56 40.5357C724.56 42.3406 722.753 44.1454 720.946 44.1454C719.139 44.1454 717.333 42.3406 717.333 40.5357Z" fill="white"/>
<path opacity="0.7" d="M823.94 81.4451C823.94 80.2419 825.145 79.0387 826.349 79.0387C827.554 79.0387 828.758 80.2419 828.758 81.4451C828.758 82.6484 827.554 83.8516 826.349 83.8516C825.145 83.8516 823.94 82.6484 823.94 81.4451Z" fill="white"/>
<path opacity="0.7" d="M799.848 272.757C799.848 272.155 800.45 271.554 801.052 271.554C801.655 271.554 802.257 272.155 802.257 272.757C802.257 273.359 801.655 273.96 801.052 273.96C800.45 273.96 799.848 273.359 799.848 272.757Z" fill="white"/>
<path opacity="0.7" d="M823.94 401.502C823.94 400.298 825.145 399.095 826.349 399.095C827.554 399.095 828.758 400.298 828.758 401.502C828.758 402.705 827.554 403.908 826.349 403.908C825.145 403.908 823.94 403.307 823.94 401.502Z" fill="white"/>
<path opacity="0.7" d="M266.819 63.9985C266.819 63.3969 267.422 62.7953 268.024 62.7953C268.626 62.7953 269.228 63.3969 269.228 63.9985C269.228 64.6001 268.626 65.2018 268.024 65.2018C267.422 65.2018 266.819 64.6001 266.819 63.9985Z" fill="white"/>
<path opacity="0.7" d="M720.344 107.314C720.344 106.111 721.549 104.908 722.754 104.908C723.958 104.908 725.163 106.111 725.163 107.314C725.163 108.518 723.958 109.721 722.754 109.721C721.549 109.721 720.344 108.518 720.344 107.314Z" fill="white"/>
<path opacity="0.7" d="M661.921 27.3C661.921 26.0968 663.125 24.8936 664.33 24.8936C665.535 24.8936 666.739 26.0968 666.739 27.3C666.739 28.5032 665.535 29.7064 664.33 29.7064C663.125 29.7064 661.921 28.5032 661.921 27.3Z" fill="white"/>
<path opacity="0.7" d="M661.921 347.959C661.921 346.755 663.125 345.552 664.33 345.552C665.535 345.552 666.739 346.755 666.739 347.959C666.739 349.162 665.535 350.365 664.33 350.365C662.523 350.365 661.921 349.162 661.921 347.959Z" fill="white"/>
<path opacity="0.7" d="M669.15 284.79C669.15 282.985 670.957 281.18 672.764 281.18C674.571 281.18 676.377 282.985 676.377 284.79C676.377 286.595 674.571 288.399 672.764 288.399C670.355 287.798 669.15 286.595 669.15 284.79Z" fill="white"/>
<path opacity="0.7" d="M1117.85 275.164C1117.85 276.367 1117.25 276.969 1116.05 276.969C1114.84 276.969 1114.24 276.367 1114.24 275.164C1114.24 273.96 1114.84 273.359 1116.05 273.359C1116.65 273.359 1117.85 273.96 1117.85 275.164Z" fill="white"/>
<path opacity="0.7" d="M1079.31 270.952C1079.31 271.554 1078.71 272.156 1078.11 272.156C1077.5 272.156 1076.9 271.554 1076.9 270.952C1076.9 270.351 1077.5 269.749 1078.11 269.749C1078.71 269.749 1079.31 270.351 1079.31 270.952Z" fill="white"/>
<path opacity="0.7" d="M1191.94 275.164C1191.94 275.766 1191.33 276.367 1190.73 276.367C1190.13 276.367 1189.53 275.766 1189.53 275.164C1189.53 274.562 1190.13 273.961 1190.73 273.961C1191.33 273.359 1191.94 273.961 1191.94 275.164Z" fill="white"/>
<path opacity="0.7" d="M1115.45 401.502C1115.45 402.103 1114.85 402.705 1114.24 402.705C1113.64 402.705 1113.04 402.103 1113.04 401.502C1113.04 400.9 1113.64 400.298 1114.24 400.298C1114.85 400.298 1115.45 400.9 1115.45 401.502Z" fill="white"/>
<path opacity="0.7" d="M168.04 91.0707C168.04 91.6723 167.438 92.2739 166.835 92.2739C166.233 92.2739 165.631 91.6723 165.631 91.0707C165.631 90.4691 166.233 89.8675 166.835 89.8675C167.438 89.2659 168.04 89.8675 168.04 91.0707Z" fill="white"/>
<path opacity="0.7" d="M1340.1 321.488C1340.1 322.09 1339.5 322.691 1338.9 322.691C1338.3 322.691 1337.69 322.09 1337.69 321.488C1337.69 320.886 1338.3 320.285 1338.9 320.285C1339.5 319.683 1340.1 320.285 1340.1 321.488Z" fill="white"/>
<path opacity="0.7" d="M1205.19 243.88C1205.19 244.481 1204.58 245.083 1203.98 245.083C1203.38 245.083 1202.78 244.481 1202.78 243.88C1202.78 243.278 1203.38 242.676 1203.98 242.676C1204.58 242.676 1205.19 243.278 1205.19 243.88Z" fill="white"/>
<path opacity="0.7" d="M1070.28 211.994C1070.28 212.596 1069.67 213.197 1069.07 213.197C1068.47 213.197 1067.87 212.596 1067.87 211.994C1067.87 211.393 1068.47 210.791 1069.07 210.791C1069.67 210.791 1070.28 211.393 1070.28 211.994Z" fill="white"/>
<path opacity="0.7" d="M1047.99 292.61C1047.99 293.814 1047.39 294.415 1046.18 294.415C1044.98 294.415 1044.38 293.814 1044.38 292.61C1044.38 291.407 1044.98 290.805 1046.18 290.805C1046.79 290.805 1047.99 291.407 1047.99 292.61Z" fill="white"/>
<path opacity="0.7" d="M7.22749 61.5921C7.22749 63.3969 5.42063 65.2018 3.61375 65.2018C1.80688 65.2018 0 63.3969 0 61.5921C0 59.7872 1.80688 57.9824 3.61375 57.9824C6.02292 58.584 7.22749 59.7872 7.22749 61.5921Z" fill="white"/>
<path opacity="0.7" d="M946.205 243.88C946.205 245.083 945.001 246.287 943.796 246.287C942.592 246.287 941.387 245.083 941.387 243.88C941.387 242.677 942.592 241.474 943.796 241.474C945.001 241.474 946.205 242.677 946.205 243.88Z" fill="white"/>
<path opacity="0.7" d="M1043.17 228.84C1043.17 230.043 1041.97 231.246 1040.76 231.246C1039.56 231.246 1038.35 230.043 1038.35 228.84C1038.35 227.637 1039.56 226.433 1040.76 226.433C1041.97 226.433 1043.17 227.637 1043.17 228.84Z" fill="white"/>
<path opacity="0.7" d="M960.659 4.43924C960.659 5.04085 960.056 5.64246 959.454 5.64246C958.852 5.64246 958.249 5.04085 958.249 4.43924C958.249 3.83763 958.852 3.23601 959.454 3.23601C960.056 2.6344 960.659 3.23602 960.659 4.43924Z" fill="white"/>
<path opacity="0.7" d="M1211.21 59.185C1211.21 59.7866 1210.61 60.3882 1210.01 60.3882C1209.4 60.3882 1208.8 59.7866 1208.8 59.185C1208.8 58.5834 1209.4 57.9817 1210.01 57.9817C1210.61 57.3801 1211.21 57.9817 1211.21 59.185Z" fill="white"/>
<path opacity="0.7" d="M1115.45 80.844C1115.45 81.4456 1114.85 82.0472 1114.24 82.0472C1113.64 82.0472 1113.04 81.4456 1113.04 80.844C1113.04 80.2424 1113.64 79.6407 1114.24 79.6407C1114.85 79.6407 1115.45 80.2424 1115.45 80.844Z" fill="white"/>
<path opacity="0.7" d="M1108.22 160.256C1108.22 160.858 1107.62 161.46 1107.02 161.46C1106.41 161.46 1105.81 160.858 1105.81 160.256C1105.81 159.655 1106.41 159.053 1107.02 159.053C1107.62 159.053 1108.22 159.655 1108.22 160.256Z" fill="white"/>
<path opacity="0.7" d="M1045.58 51.9658C1045.58 52.5674 1044.98 53.1691 1044.38 53.1691C1043.77 53.1691 1043.17 52.5674 1043.17 51.9658C1043.17 51.3642 1043.77 50.7626 1044.38 50.7626C1044.98 50.161 1045.58 50.7626 1045.58 51.9658Z" fill="white"/>
<path opacity="0.7" d="M1168.45 153.037C1168.45 153.639 1167.85 154.24 1167.24 154.24C1166.64 154.24 1166.04 153.639 1166.04 153.037C1166.04 152.436 1166.64 151.834 1167.24 151.834C1167.85 151.834 1168.45 152.436 1168.45 153.037Z" fill="white"/>
<path opacity="0.7" d="M1013.66 22.4869C1013.66 23.0885 1013.06 23.6901 1012.45 23.6901C1011.85 23.6901 1011.25 23.0885 1011.25 22.4869C1011.25 21.8853 1011.85 21.2837 1012.45 21.2837C1013.06 21.2837 1013.66 21.8853 1013.66 22.4869Z" fill="white"/>
<path opacity="0.7" d="M1084.13 30.9104C1084.13 32.1136 1082.92 33.3168 1081.72 33.3168C1080.51 33.3168 1079.31 32.1136 1079.31 30.9104C1079.31 29.7071 1080.51 28.5039 1081.72 28.5039C1082.92 28.5039 1084.13 29.7071 1084.13 30.9104Z" fill="white"/>
<path opacity="0.7" d="M1063.65 157.849C1063.65 159.052 1062.45 160.256 1061.24 160.256C1060.04 160.256 1058.83 159.052 1058.83 157.849C1058.83 156.646 1060.04 155.443 1061.24 155.443C1062.45 155.443 1063.65 156.646 1063.65 157.849Z" fill="white"/>
<path opacity="0.7" d="M1023.3 125.964C1023.3 127.167 1022.09 128.37 1020.89 128.37C1019.68 128.37 1018.48 127.167 1018.48 125.964C1018.48 124.761 1019.68 123.557 1020.89 123.557C1022.09 123.557 1023.3 124.159 1023.3 125.964Z" fill="white"/>
<path opacity="0.7" d="M926.326 85.055C926.326 86.2582 925.121 87.4615 923.916 87.4615C922.712 87.4615 921.507 86.2582 921.507 85.055C921.507 83.8518 922.712 82.6486 923.916 82.6486C925.121 82.6486 926.326 83.2502 926.326 85.055Z" fill="white"/>
<path opacity="0.7" d="M990.172 70.0141C990.172 71.2173 989.57 71.8189 988.366 71.8189C987.161 71.8189 986.559 71.2173 986.559 70.0141C986.559 68.8108 987.161 68.2092 988.366 68.2092C989.57 68.2092 990.172 69.4125 990.172 70.0141Z" fill="white"/>
<path opacity="0.7" d="M1098.58 307.048C1098.58 307.65 1097.98 308.251 1097.38 308.251C1096.77 308.251 1096.17 307.65 1096.17 307.048C1096.17 306.447 1096.77 305.845 1097.38 305.845C1097.98 305.243 1098.58 305.845 1098.58 307.048Z" fill="white"/>
<path opacity="0.7" d="M742.025 350.967C742.025 352.17 740.821 353.373 739.616 353.373C738.412 353.373 737.207 352.17 737.207 350.967C737.207 349.764 738.412 348.56 739.616 348.56C740.821 348.56 742.025 349.162 742.025 350.967Z" fill="white"/>
<path opacity="0.7" d="M1211.21 405.111C1211.21 405.713 1210.61 406.315 1210.01 406.315C1209.4 406.315 1208.8 405.713 1208.8 405.111C1208.8 404.51 1209.4 403.908 1210.01 403.908C1210.61 403.908 1211.21 404.51 1211.21 405.111Z" fill="white"/>
<path opacity="0.7" d="M966.681 417.746C966.681 418.949 966.079 419.55 964.874 419.55C963.67 419.55 963.067 418.949 963.067 417.746C963.067 416.542 963.67 415.941 964.874 415.941C966.079 415.941 966.681 416.542 966.681 417.746Z" fill="white"/>
<path opacity="0.7" d="M1325.05 127.769C1325.05 128.371 1324.44 128.973 1323.84 128.973C1323.24 128.973 1322.64 128.371 1322.64 127.769C1322.64 127.168 1323.24 126.566 1323.84 126.566C1324.44 125.964 1325.05 126.566 1325.05 127.769Z" fill="white"/>
<path opacity="0.7" d="M1366 372.023C1366 372.625 1365.4 373.226 1364.8 373.226C1364.19 373.226 1363.59 372.625 1363.59 372.023C1363.59 371.421 1364.19 370.82 1364.8 370.82C1365.4 370.82 1366 371.421 1366 372.023Z" fill="white"/>
<path opacity="0.7" d="M1241.33 276.366C1241.33 277.57 1240.12 278.773 1238.92 278.773C1237.71 278.773 1236.51 277.57 1236.51 276.366C1236.51 275.163 1237.71 273.96 1238.92 273.96C1240.12 273.96 1241.33 275.163 1241.33 276.366Z" fill="white"/>
<path opacity="0.7" d="M1266.02 243.88C1266.02 245.083 1264.82 246.287 1263.61 246.287C1262.41 246.287 1261.2 245.083 1261.2 243.88C1261.2 242.677 1262.41 241.474 1263.61 241.474C1265.42 241.474 1266.02 242.677 1266.02 243.88Z" fill="white"/>
<path opacity="0.7" d="M1246.15 405.112C1246.15 406.315 1244.94 407.518 1243.74 407.518C1242.53 407.518 1241.33 406.315 1241.33 405.112C1241.33 403.909 1242.53 402.706 1243.74 402.706C1244.94 402.706 1246.15 403.909 1246.15 405.112Z" fill="white"/>
<path opacity="0.7" d="M1362.99 228.84C1362.99 230.043 1361.78 231.246 1360.58 231.246C1359.37 231.246 1358.17 230.043 1358.17 228.84C1358.17 227.637 1359.37 226.433 1360.58 226.433C1362.39 226.433 1362.99 227.637 1362.99 228.84Z" fill="white"/>
<path opacity="0.7" d="M1310.59 390.673C1310.59 391.876 1309.99 392.477 1308.78 392.477C1307.58 392.477 1306.97 391.876 1306.97 390.673C1306.97 389.469 1307.58 388.868 1308.78 388.868C1309.99 388.868 1310.59 389.469 1310.59 390.673Z" fill="white"/>
<path opacity="0.7" d="M1314.2 198.76C1314.2 199.963 1313.6 200.564 1312.4 200.564C1311.19 200.564 1310.59 199.963 1310.59 198.76C1310.59 197.556 1311.19 196.955 1312.4 196.955C1313.6 196.955 1314.2 197.556 1314.2 198.76Z" fill="white"/>
<path opacity="0.7" d="M1340.1 641.488C1340.1 642.09 1339.5 642.691 1338.9 642.691C1338.3 642.691 1337.69 642.09 1337.69 641.488C1337.69 640.886 1338.3 640.285 1338.9 640.285C1339.5 639.683 1340.1 640.285 1340.1 641.488Z" fill="white"/>
<path opacity="0.7" d="M1325.05 447.769C1325.05 448.371 1324.44 448.973 1323.84 448.973C1323.24 448.973 1322.64 448.371 1322.64 447.769C1322.64 447.168 1323.24 446.566 1323.84 446.566C1324.44 445.964 1325.05 446.566 1325.05 447.769Z" fill="white"/>
<path opacity="0.7" d="M1241.33 596.366C1241.33 597.57 1240.12 598.773 1238.92 598.773C1237.71 598.773 1236.51 597.57 1236.51 596.366C1236.51 595.163 1237.71 593.96 1238.92 593.96C1240.12 593.96 1241.33 595.163 1241.33 596.366Z" fill="white"/>
<path opacity="0.7" d="M1266.02 563.88C1266.02 565.083 1264.82 566.287 1263.61 566.287C1262.41 566.287 1261.2 565.083 1261.2 563.88C1261.2 562.677 1262.41 561.474 1263.61 561.474C1265.42 561.474 1266.02 562.677 1266.02 563.88Z" fill="white"/>
<path opacity="0.7" d="M1362.99 548.84C1362.99 550.043 1361.78 551.246 1360.58 551.246C1359.37 551.246 1358.17 550.043 1358.17 548.84C1358.17 547.637 1359.37 546.433 1360.58 546.433C1362.39 546.433 1362.99 547.637 1362.99 548.84Z" fill="white"/>
<path opacity="0.7" d="M1314.2 518.76C1314.2 519.963 1313.6 520.564 1312.4 520.564C1311.19 520.564 1310.59 519.963 1310.59 518.76C1310.59 517.556 1311.19 516.955 1312.4 516.955C1313.6 516.955 1314.2 517.556 1314.2 518.76Z" fill="white"/>
<path opacity="0.7" d="M1281.08 4.43924C1281.08 5.04085 1280.48 5.64246 1279.87 5.64246C1279.27 5.64246 1278.67 5.04085 1278.67 4.43924C1278.67 3.83763 1279.27 3.23601 1279.87 3.23601C1280.48 2.6344 1281.08 3.23602 1281.08 4.43924Z" fill="white"/>
<path opacity="0.7" d="M1366 51.9658C1366 52.5674 1365.4 53.1691 1364.8 53.1691C1364.19 53.1691 1363.59 52.5674 1363.59 51.9658C1363.59 51.3642 1364.19 50.7626 1364.8 50.7626C1365.4 50.161 1366 50.7626 1366 51.9658Z" fill="white"/>
<path opacity="0.7" d="M1334.08 22.4869C1334.08 23.0885 1333.48 23.6901 1332.88 23.6901C1332.27 23.6901 1331.67 23.0885 1331.67 22.4869C1331.67 21.8853 1332.27 21.2837 1332.88 21.2837C1333.48 21.2837 1334.08 21.8853 1334.08 22.4869Z" fill="white"/>
<path opacity="0.7" d="M593.262 373.226C593.262 375.031 591.455 376.836 589.648 376.836C587.841 376.836 586.034 375.031 586.034 373.226C586.034 371.422 587.841 369.617 589.648 369.617C592.057 370.218 593.262 371.422 593.262 373.226Z" fill="white"/>
<g opacity="0.7">
<path opacity="0.7" d="M661.321 104.306L661.924 116.94L675.174 118.143L662.526 118.744L661.321 131.98L660.117 118.744L647.469 118.143L660.117 116.94L661.321 104.306Z" fill="white"/>
<path opacity="0.7" d="M666.741 112.127L662.525 117.542L666.741 123.558L661.32 118.745L655.297 124.159L660.116 118.143L655.297 112.127L661.32 116.94L666.741 112.127Z" fill="white"/>
</g>
<g opacity="0.7">
<path opacity="0.7" d="M524.601 78.4366L525.805 91.0705L538.453 92.2737L525.805 92.8753L524.601 106.111L523.396 92.8753L510.748 92.2737L523.396 91.0705L524.601 78.4366Z" fill="white"/>
<path opacity="0.7" d="M530.02 86.2578L525.804 92.2739L530.02 97.6884L524.6 93.4771L518.577 98.29L523.998 92.2739L518.577 86.8594L524.6 91.0707L530.02 86.2578Z" fill="white"/>
</g>
<g opacity="0.7">
<path opacity="0.7" d="M611.933 410.527L612.536 418.949L621.57 420.152H612.536L611.933 429.778L611.331 420.152H602.297L611.331 418.949L611.933 410.527Z" fill="white"/>
<path opacity="0.7" d="M615.549 415.941L612.538 419.55L615.549 423.762L611.935 420.152L607.719 423.762L611.333 419.55L607.719 415.941L611.935 418.949L615.549 415.941Z" fill="white"/>
</g>
<g opacity="0.7">
<path opacity="0.7" d="M311.388 60.9901L311.99 69.4127L321.025 70.6159H312.593L311.388 80.2416L310.786 70.6159H301.751L310.786 69.4127L311.388 60.9901Z" fill="white"/>
<path opacity="0.7" d="M315.606 66.4041L312.595 70.0138L315.606 74.225L311.39 71.217L307.174 74.225L310.788 70.6154L307.174 66.4041L311.39 69.4122L315.606 66.4041Z" fill="white"/>
</g>
<g opacity="0.7">
<path opacity="0.7" d="M871.52 51.3638L872.122 59.7863L881.156 60.9895H872.122L871.52 70.6153L870.917 60.9895H861.883L870.917 59.7863L871.52 51.3638Z" fill="white"/>
<path opacity="0.7" d="M875.738 56.7778L872.124 60.3875L875.738 64.5987L871.522 61.5907L867.306 64.5987L870.919 60.9891L867.306 56.7778L871.522 59.7858L875.738 56.7778Z" fill="white"/>
</g>
<g opacity="0.7">
<path opacity="0.7" d="M1129.9 375.633L1131.11 387.665L1143.76 389.47H1131.11L1129.9 403.307L1128.7 389.47H1116.05L1128.7 387.665L1129.9 375.633Z" fill="white"/>
<path opacity="0.7" d="M1135.32 382.852L1131.11 388.868L1135.32 394.884L1129.9 390.071L1123.88 394.884L1129.3 388.868L1123.88 383.453L1129.9 387.665L1135.32 382.852Z" fill="white"/>
</g>
<g opacity="0.7">
<path opacity="0.7" d="M1217.24 60.9901L1217.84 69.4127L1226.87 70.6159H1217.84L1217.24 80.2416L1216.64 70.6159H1207.6L1216.64 69.4127L1217.24 60.9901Z" fill="white"/>
<path opacity="0.7" d="M1220.85 66.4041L1217.84 70.0138L1220.85 74.225L1217.24 71.217L1213.02 74.225L1216.64 70.6154L1213.02 66.4041L1217.24 69.4122L1220.85 66.4041Z" fill="white"/>
</g>
<g opacity="0.7">
<path opacity="0.7" d="M1025.1 261.327L1025.71 270.351L1034.74 270.953L1025.71 271.554L1025.1 280.578L1024.5 271.554L1015.47 270.953L1024.5 270.351L1025.1 261.327Z" fill="white"/>
<path opacity="0.7" d="M1028.72 266.741L1025.71 270.952L1028.72 275.163L1025.11 271.554L1020.89 275.163L1024.5 270.952L1020.89 267.343L1025.11 270.351L1028.72 266.741Z" fill="white"/>
</g>
<g opacity="0.7">
<path opacity="0.7" d="M897.417 317.277L898.019 326.301L907.053 326.902L898.019 327.504L897.417 336.528L896.815 327.504L887.78 326.902L896.815 326.301L897.417 317.277Z" fill="white"/>
<path opacity="0.7" d="M901.033 322.691L898.021 326.902L901.033 331.113L897.419 327.504L893.203 331.113L896.817 326.902L893.203 323.292L897.419 326.3L901.033 322.691Z" fill="white"/>
</g>
<g opacity="0.7">
<path opacity="0.7" d="M952.228 79.0387L953.433 87.4613L961.865 88.6645H953.433L952.228 98.2902L951.626 88.6645H942.592L951.626 87.4613L952.228 79.0387Z" fill="white"/>
<path opacity="0.7" d="M956.446 84.4527L953.435 88.0623L956.446 92.2736L952.833 89.2656L948.014 92.2736L951.628 88.6639L948.014 84.4527L952.23 87.4607L956.446 84.4527Z" fill="white"/>
</g>
<path opacity="0.7" d="M1155.04 743.568C1155.04 742.365 1155.64 741.763 1156.85 741.763C1158.05 741.763 1158.66 742.365 1158.66 743.568C1158.66 744.771 1158.05 745.373 1156.85 745.373C1156.25 745.373 1155.04 744.771 1155.04 743.568Z" fill="white"/>
<path opacity="0.7" d="M1081.06 739.568C1081.06 738.966 1081.66 738.364 1082.27 738.364C1082.87 738.364 1083.47 738.966 1083.47 739.568C1083.47 740.169 1082.87 740.771 1082.27 740.771C1081.66 741.372 1081.06 740.771 1081.06 739.568Z" fill="white"/>
<path opacity="0.7" d="M1232.4 650.686C1232.4 650.084 1233 649.483 1233.6 649.483C1234.21 649.483 1234.81 650.084 1234.81 650.686C1234.81 651.287 1234.21 651.889 1233.6 651.889C1233 651.889 1232.4 651.287 1232.4 650.686Z" fill="white"/>
<path opacity="0.7" d="M394.888 679.271C394.888 678.669 395.49 678.068 396.092 678.068C396.695 678.068 397.297 678.669 397.297 679.271C397.297 679.872 396.695 680.474 396.092 680.474C395.49 680.474 394.888 679.872 394.888 679.271Z" fill="white"/>
<path opacity="0.7" d="M1061.59 810.218C1061.59 809.617 1062.2 809.015 1062.8 809.015C1063.4 809.015 1064 809.617 1064 810.218C1064 810.82 1063.4 811.421 1062.8 811.421C1062.2 811.421 1061.59 810.82 1061.59 810.218Z" fill="white"/>
<path opacity="0.7" d="M1066.16 770.098C1066.16 769.496 1066.76 768.895 1067.36 768.895C1067.97 768.895 1068.57 769.496 1068.57 770.098C1068.57 770.699 1067.97 771.301 1067.36 771.301C1066.76 771.301 1066.16 770.699 1066.16 770.098Z" fill="white"/>
<path opacity="0.7" d="M1008.74 693.581C1008.74 692.378 1009.95 691.174 1011.15 691.174C1012.36 691.174 1013.56 692.378 1013.56 693.581C1013.56 694.784 1012.36 695.987 1011.15 695.987C1009.35 695.987 1008.74 694.784 1008.74 693.581Z" fill="white"/>
<path opacity="0.7" d="M1309.42 811.524C1309.42 810.321 1310.63 809.118 1311.83 809.118C1313.04 809.118 1314.24 810.321 1314.24 811.524C1314.24 812.728 1313.04 813.931 1311.83 813.931C1310.63 813.931 1309.42 812.728 1309.42 811.524Z" fill="white"/>
<path opacity="0.7" d="M1353.85 624.128C1353.85 622.924 1355.06 621.721 1356.26 621.721C1357.47 621.721 1358.67 622.924 1358.67 624.128C1358.67 625.331 1357.47 626.534 1356.26 626.534C1354.46 626.534 1353.85 625.331 1353.85 624.128Z" fill="white"/>
<path opacity="0.7" d="M1227.14 793.857C1227.14 792.654 1228.34 791.451 1229.54 791.451C1230.75 791.451 1231.95 792.654 1231.95 793.857C1231.95 795.06 1230.75 796.263 1229.54 796.263C1228.34 796.263 1227.14 795.06 1227.14 793.857Z" fill="white"/>
<path opacity="0.7" d="M1288.73 635.062C1288.73 633.859 1289.33 633.258 1290.53 633.258C1291.74 633.258 1292.34 633.859 1292.34 635.062C1292.34 636.266 1291.74 636.867 1290.53 636.867C1289.33 636.867 1288.73 636.266 1288.73 635.062Z" fill="white"/>
<path opacity="0.7" d="M1243.96 873.652C1243.96 872.449 1244.57 871.847 1245.77 871.847C1246.98 871.847 1247.58 872.449 1247.58 873.652C1247.58 874.855 1246.98 875.457 1245.77 875.457C1244.57 875.457 1243.96 874.254 1243.96 873.652Z" fill="white"/>
<path opacity="0.7" d="M598.496 886.598C598.496 885.996 599.099 885.395 599.701 885.395C600.303 885.395 600.906 885.996 600.906 886.598C600.906 887.199 600.303 887.801 599.701 887.801C599.099 887.801 598.496 887.801 598.496 886.598Z" fill="white"/>
<path opacity="0.7" d="M1147.04 937.705C1147.04 937.104 1147.64 936.502 1148.24 936.502C1148.85 936.502 1149.45 937.104 1149.45 937.705C1149.45 938.307 1148.85 938.908 1148.24 938.908C1147.64 938.908 1147.04 938.307 1147.04 937.705Z" fill="white"/>
<path opacity="0.7" d="M1097.98 862.777C1097.98 862.176 1098.58 861.574 1099.18 861.574C1099.79 861.574 1100.39 862.176 1100.39 862.777C1100.39 863.379 1099.79 863.98 1099.18 863.98C1098.58 863.98 1097.98 863.379 1097.98 862.777Z" fill="white"/>
<path opacity="0.7" d="M1209.15 600.638C1209.15 600.036 1209.75 599.435 1210.35 599.435C1210.96 599.435 1211.56 600.036 1211.56 600.638C1211.56 601.24 1210.96 601.841 1210.35 601.841C1209.75 601.841 1209.15 601.24 1209.15 600.638Z" fill="white"/>
<path opacity="0.7" d="M662.612 905.766C662.612 904.562 663.816 903.359 665.021 903.359C666.226 903.359 667.43 904.562 667.43 905.766C667.43 906.969 666.226 908.172 665.021 908.172C663.214 908.172 662.612 907.571 662.612 905.766Z" fill="white"/>
<path opacity="0.7" d="M1350.21 658.242C1350.21 657.039 1350.82 656.437 1352.02 656.437C1353.23 656.437 1353.83 657.039 1353.83 658.242C1353.83 659.445 1353.23 660.047 1352.02 660.047C1350.82 660.047 1350.21 659.445 1350.21 658.242Z" fill="white"/>
<path opacity="0.7" d="M1071.65 645.206C1071.65 643.401 1073.46 641.596 1075.27 641.596C1077.07 641.596 1078.88 643.401 1078.88 645.206C1078.88 647.011 1077.07 648.815 1075.27 648.815C1073.46 648.214 1071.65 647.011 1071.65 645.206Z" fill="white"/>
<path opacity="0.7" d="M1175.99 712.729C1175.99 712.127 1176.59 711.526 1177.19 711.526C1177.8 711.526 1178.4 712.127 1178.4 712.729C1178.4 713.33 1177.8 713.932 1177.19 713.932C1176.59 714.534 1175.99 713.932 1175.99 712.729Z" fill="white"/>
<path opacity="0.7" d="M1107.4 608.436C1107.4 607.835 1108 607.233 1108.6 607.233C1109.2 607.233 1109.81 607.835 1109.81 608.436C1109.81 609.038 1109.2 609.639 1108.6 609.639C1108 609.639 1107.4 609.038 1107.4 608.436Z" fill="white"/>
<path opacity="0.7" d="M519.107 713.647C519.107 713.045 519.709 712.444 520.312 712.444C520.914 712.444 521.516 713.045 521.516 713.647C521.516 714.248 520.914 714.85 520.312 714.85C519.709 714.85 519.107 714.248 519.107 713.647Z" fill="white"/>
<path opacity="0.7" d="M490.012 581.35C490.012 580.748 490.615 580.147 491.217 580.147C491.819 580.147 492.421 580.748 492.421 581.35C492.421 581.951 491.819 582.553 491.217 582.553C490.615 582.553 490.012 581.951 490.012 581.35Z" fill="white"/>
<path opacity="0.7" d="M671.226 598.9C671.226 598.298 671.828 597.697 672.43 597.697C673.032 597.697 673.635 598.298 673.635 598.9C673.635 599.501 673.032 600.103 672.43 600.103C671.828 600.103 671.226 599.501 671.226 598.9Z" fill="white"/>
<path opacity="0.7" d="M415.213 637.585C415.213 636.983 415.815 636.382 416.417 636.382C417.019 636.382 417.622 636.983 417.622 637.585C417.622 638.187 417.019 638.788 416.417 638.788C415.815 639.39 415.213 638.788 415.213 637.585Z" fill="white"/>
<path opacity="0.7" d="M518.608 632.953C518.608 631.75 519.813 630.547 521.017 630.547C522.222 630.547 523.427 631.75 523.427 632.953C523.427 634.157 522.222 635.36 521.017 635.36C519.813 635.36 518.608 634.157 518.608 632.953Z" fill="white"/>
<path opacity="0.7" d="M552.937 757.699C552.937 756.496 554.141 755.292 555.346 755.292C556.551 755.292 557.755 756.496 557.755 757.699C557.755 758.902 556.551 760.105 555.346 760.105C554.141 760.105 552.937 758.902 552.937 757.699Z" fill="white"/>
<path opacity="0.7" d="M522.595 569.842C522.595 569.24 523.198 568.639 523.8 568.639C524.402 568.639 525.005 569.24 525.005 569.842C525.005 570.444 524.402 571.045 523.8 571.045C523.198 571.045 522.595 570.444 522.595 569.842Z" fill="white"/>
<path opacity="0.7" d="M472.84 901.547C472.84 900.945 473.442 900.344 474.044 900.344C474.647 900.344 475.249 900.945 475.249 901.547C475.249 902.149 474.647 902.75 474.044 902.75C473.442 902.75 472.84 902.149 472.84 901.547Z" fill="white"/>
<path opacity="0.7" d="M484.311 822.636C484.311 822.034 484.913 821.433 485.516 821.433C486.118 821.433 486.72 822.034 486.72 822.636C486.72 823.237 486.118 823.839 485.516 823.839C484.913 823.839 484.311 823.237 484.311 822.636Z" fill="white"/>
<path opacity="0.7" d="M541.051 934.125C541.051 933.523 541.653 932.922 542.255 932.922C542.857 932.922 543.46 933.523 543.46 934.125C543.46 934.727 542.857 935.328 542.255 935.328C541.653 935.93 541.051 935.328 541.051 934.125Z" fill="white"/>
<path opacity="0.7" d="M501.436 953.151C501.436 951.947 502.64 950.744 503.845 950.744C505.049 950.744 506.254 951.947 506.254 953.151C506.254 954.354 505.049 955.557 503.845 955.557C502.64 955.557 501.436 954.354 501.436 953.151Z" fill="white"/>
<path opacity="0.7" d="M612.178 777.746C612.178 776.542 613.382 775.339 614.587 775.339C615.792 775.339 616.996 776.542 616.996 777.746C616.996 778.949 615.792 780.152 614.587 780.152C613.382 780.152 612.178 778.949 612.178 777.746Z" fill="white"/>
<path opacity="0.7" d="M648.479 685.642C648.479 685.04 649.082 684.438 649.684 684.438C650.286 684.438 650.888 685.04 650.888 685.642C650.888 686.243 650.286 686.845 649.684 686.845C649.082 686.845 648.479 686.243 648.479 685.642Z" fill="white"/>
<path opacity="0.7" d="M1313.63 609.287C1313.63 608.083 1314.24 607.482 1315.44 607.482C1316.65 607.482 1317.25 608.083 1317.25 609.287C1317.25 610.49 1316.65 611.091 1315.44 611.091C1314.24 611.091 1313.63 610.49 1313.63 609.287Z" fill="white"/>
<path opacity="0.7" d="M832.134 725.142C832.134 723.337 833.941 721.533 835.748 721.533C837.555 721.533 839.362 723.337 839.362 725.142C839.362 726.947 837.555 728.752 835.748 728.752C833.941 728.15 832.134 726.947 832.134 725.142Z" fill="white"/>
<path opacity="0.7" d="M873.949 732.677C873.949 732.076 874.551 731.474 875.153 731.474C875.756 731.474 876.358 732.076 876.358 732.677C876.358 733.279 875.756 733.881 875.153 733.881C874.551 733.881 873.949 733.279 873.949 732.677Z" fill="white"/>
<path opacity="0.7" d="M940.249 879.622C940.249 879.021 940.852 878.419 941.454 878.419C942.056 878.419 942.658 879.021 942.658 879.622C942.658 880.224 942.056 880.826 941.454 880.826C940.852 881.427 940.249 880.826 940.249 879.622Z" fill="white"/>
<path opacity="0.7" d="M844.255 600.348C844.255 599.747 844.857 599.145 845.46 599.145C846.062 599.145 846.664 599.747 846.664 600.348C846.664 600.95 846.062 601.551 845.46 601.551C844.857 601.551 844.255 600.95 844.255 600.348Z" fill="white"/>
<path opacity="0.7" d="M912.44 633.526C912.44 632.924 913.043 632.323 913.645 632.323C914.247 632.323 914.849 632.924 914.849 633.526C914.849 634.128 914.247 634.729 913.645 634.729C913.043 634.729 912.44 634.128 912.44 633.526Z" fill="white"/>
<path opacity="0.7" d="M755.703 575.717C755.703 575.116 756.306 574.514 756.908 574.514C757.51 574.514 758.113 575.116 758.113 575.717C758.113 576.319 757.51 576.921 756.908 576.921C756.306 576.921 755.703 576.319 755.703 575.717Z" fill="white"/>
<path opacity="0.7" d="M943.366 664.104C943.366 663.503 943.968 662.901 944.57 662.901C945.173 662.901 945.775 663.503 945.775 664.104C945.775 664.706 945.173 665.308 944.57 665.308C943.968 665.909 943.366 665.308 943.366 664.104Z" fill="white"/>
<path opacity="0.7" d="M746.199 752.938C746.199 752.336 746.801 751.735 747.403 751.735C748.006 751.735 748.608 752.336 748.608 752.938C748.608 753.539 748.006 754.141 747.403 754.141C746.801 754.141 746.199 753.539 746.199 752.938Z" fill="white"/>
<path opacity="0.7" d="M879.813 792.035C879.813 791.433 880.416 790.832 881.018 790.832C881.62 790.832 882.222 791.433 882.222 792.035C882.222 792.636 881.62 793.238 881.018 793.238C880.416 793.238 879.813 792.636 879.813 792.035Z" fill="white"/>
<path opacity="0.7" d="M1031.81 735.787C1031.81 734.583 1033.01 733.38 1034.22 733.38C1035.42 733.38 1036.63 734.583 1036.63 735.787C1036.63 736.99 1035.42 738.193 1034.22 738.193C1033.01 738.193 1031.81 736.99 1031.81 735.787Z" fill="white"/>
<path opacity="0.7" d="M1005.41 766.904C1005.41 765.701 1006.62 764.497 1007.82 764.497C1009.03 764.497 1010.23 765.701 1010.23 766.904C1010.23 768.107 1009.03 769.31 1007.82 769.31C1006.62 769.31 1005.41 768.107 1005.41 766.904Z" fill="white"/>
<path opacity="0.7" d="M1033.89 606.968C1033.89 605.764 1035.1 604.561 1036.3 604.561C1037.51 604.561 1038.71 605.764 1038.71 606.968C1038.71 608.171 1037.51 609.374 1036.3 609.374C1035.1 609.374 1033.89 608.171 1033.89 606.968Z" fill="white"/>
<path opacity="0.7" d="M907.78 776.73C907.78 775.526 908.984 774.323 910.189 774.323C911.394 774.323 912.598 775.526 912.598 776.73C912.598 777.933 911.394 779.136 910.189 779.136C908.984 779.136 907.78 777.933 907.78 776.73Z" fill="white"/>
<path opacity="0.7" d="M968.772 617.903C968.772 616.7 969.374 616.098 970.578 616.098C971.783 616.098 972.385 616.7 972.385 617.903C972.385 619.106 971.783 619.708 970.578 619.708C969.374 619.708 968.772 619.106 968.772 617.903Z" fill="white"/>
<path opacity="0.7" d="M790.048 677.699C790.048 675.894 791.855 674.09 793.662 674.09C795.469 674.09 797.276 675.894 797.276 677.699C797.276 679.504 795.469 681.309 793.662 681.309C791.253 681.309 790.048 680.106 790.048 677.699Z" fill="white"/>
<path opacity="0.7" d="M954.882 809.347C954.882 808.144 955.484 807.542 956.689 807.542C957.894 807.542 958.496 808.144 958.496 809.347C958.496 810.55 957.894 811.152 956.689 811.152C956.087 811.152 954.882 810.55 954.882 809.347Z" fill="white"/>
<path opacity="0.7" d="M983.025 880.711C983.025 880.109 983.627 879.508 984.229 879.508C984.832 879.508 985.434 880.109 985.434 880.711C985.434 881.313 984.832 881.914 984.229 881.914C983.627 881.914 983.025 881.313 983.025 880.711Z" fill="white"/>
<path opacity="0.7" d="M827.082 920.546C827.082 919.944 827.685 919.342 828.287 919.342C828.889 919.342 829.492 919.944 829.492 920.546C829.492 921.147 828.889 921.749 828.287 921.749C827.685 921.749 827.082 921.147 827.082 920.546Z" fill="white"/>
<path opacity="0.7" d="M838.549 841.634C838.549 841.032 839.151 840.431 839.753 840.431C840.355 840.431 840.958 841.032 840.958 841.634C840.958 842.236 840.355 842.837 839.753 842.837C839.151 842.837 838.549 842.236 838.549 841.634Z" fill="white"/>
<path opacity="0.7" d="M895.294 953.124C895.294 952.522 895.896 951.92 896.498 951.92C897.1 951.92 897.703 952.522 897.703 953.124C897.703 953.725 897.1 954.327 896.498 954.327C895.896 954.928 895.294 954.327 895.294 953.124Z" fill="white"/>
<path opacity="0.7" d="M779.224 844.414C778.558 844.414 778.019 844.953 778.019 845.617C778.019 846.282 778.558 846.821 779.224 846.821C779.889 846.821 780.428 846.282 780.428 845.617C780.428 844.953 779.889 844.414 779.224 844.414Z" fill="white"/>
<path opacity="0.7" d="M883.527 846.522C883.527 845.318 884.731 844.115 885.936 844.115C887.141 844.115 888.345 845.318 888.345 846.522C888.345 847.725 887.141 848.928 885.936 848.928C884.129 848.928 883.527 847.725 883.527 846.522Z" fill="white"/>
<path opacity="0.7" d="M922.116 880.522C922.116 879.319 923.321 878.116 924.526 878.116C925.73 878.116 926.935 879.319 926.935 880.522C926.935 881.726 925.73 882.929 924.526 882.929C922.719 882.929 922.116 882.327 922.116 880.522Z" fill="white"/>
<path opacity="0.7" d="M1016.75 926.565C1016.75 925.362 1017.96 924.159 1019.16 924.159C1020.37 924.159 1021.57 925.362 1021.57 926.565C1021.57 927.769 1020.37 928.972 1019.16 928.972C1017.96 928.972 1016.75 928.37 1016.75 926.565Z" fill="white"/>
<path opacity="0.7" d="M951.599 938.101C951.599 936.898 952.201 936.297 953.406 936.297C954.61 936.297 955.213 936.898 955.213 938.101C955.213 939.305 954.61 939.906 953.406 939.906C952.201 939.906 951.599 938.703 951.599 938.101Z" fill="white"/>
<path opacity="0.7" d="M986.877 853.839C986.877 852.636 987.48 852.034 988.684 852.034C989.889 852.034 990.491 852.636 990.491 853.839C990.491 855.042 989.889 855.644 988.684 855.644C988.082 855.644 986.877 855.042 986.877 853.839Z" fill="white"/>
<path opacity="0.7" d="M877.029 888.916C877.029 887.713 877.631 887.112 878.836 887.112C880.04 887.112 880.643 887.713 880.643 888.916C880.643 890.12 880.04 890.721 878.836 890.721C878.234 890.721 877.029 890.12 877.029 888.916Z" fill="white"/>
<path opacity="0.7" d="M1027.35 863.939C1027.35 862.134 1029.16 860.33 1030.97 860.33C1032.77 860.33 1034.58 862.134 1034.58 863.939C1034.58 865.744 1032.77 867.549 1030.97 867.549C1028.56 867.549 1027.35 865.744 1027.35 863.939Z" fill="white"/>
<path opacity="0.7" d="M861.556 648.872C861.556 648.27 862.158 647.668 862.76 647.668C863.363 647.668 863.965 648.27 863.965 648.872C863.965 649.473 863.363 650.075 862.76 650.075C862.158 650.075 861.556 649.473 861.556 648.872Z" fill="white"/>
<path opacity="0.7" d="M994.278 592.159C994.278 590.956 994.881 590.354 996.085 590.354C997.29 590.354 997.892 590.956 997.892 592.159C997.892 593.362 997.29 593.964 996.085 593.964C994.881 593.964 994.278 593.362 994.278 592.159Z" fill="white"/>
<path opacity="0.7" d="M792.747 942.201C792.747 941.6 793.35 940.998 793.952 940.998C794.554 940.998 795.156 941.6 795.156 942.201C795.156 942.803 794.554 943.405 793.952 943.405C793.35 943.405 792.747 942.803 792.747 942.201Z" fill="white"/>
<path opacity="0.7" d="M815.132 794.72C815.132 792.915 816.939 791.11 818.746 791.11C820.553 791.11 822.36 792.915 822.36 794.72C822.36 796.524 820.553 798.329 818.746 798.329C816.939 798.329 815.132 796.524 815.132 794.72Z" fill="white"/>
<path opacity="0.7" d="M778.49 848.118C778.49 846.914 779.695 845.711 780.899 845.711C782.104 845.711 783.309 846.914 783.309 848.118C783.309 849.321 782.104 850.524 780.899 850.524C779.093 850.524 778.49 849.321 778.49 848.118Z" fill="white"/>
<path opacity="0.7" d="M732 939.008C732 937.805 733.205 936.602 734.409 936.602C735.614 936.602 736.818 937.805 736.818 939.008C736.818 940.211 735.614 941.415 734.409 941.415C732.602 941.415 732 940.211 732 939.008Z" fill="white"/>
<path opacity="0.7" d="M760.514 778.472C760.514 777.269 761.718 776.065 762.923 776.065C764.128 776.065 765.332 777.269 765.332 778.472C765.332 779.675 764.128 780.878 762.923 780.878C761.718 780.878 760.514 779.675 760.514 778.472Z" fill="white"/>
<path opacity="0.7" d="M720.261 764.231C720.261 763.028 720.864 762.426 722.068 762.426C723.273 762.426 723.875 763.028 723.875 764.231C723.875 765.434 723.273 766.036 722.068 766.036C721.466 766.036 720.261 764.832 720.261 764.231Z" fill="white"/>
<path opacity="0.7" d="M541.519 824.37C541.519 824.971 540.917 825.573 540.314 825.573C539.712 825.573 539.11 824.971 539.11 824.37C539.11 823.768 539.712 823.167 540.314 823.167C540.917 822.565 541.519 823.167 541.519 824.37Z" fill="white"/>
<path opacity="0.7" d="M669.294 803.508C669.294 804.11 668.691 804.712 668.089 804.712C667.487 804.712 666.884 804.11 666.884 803.508C666.884 802.907 667.487 802.305 668.089 802.305C668.691 802.305 669.294 802.907 669.294 803.508Z" fill="white"/>
<path opacity="0.7" d="M646.304 950.958C646.304 952.763 644.497 954.568 642.69 954.568C640.884 954.568 639.077 952.763 639.077 950.958C639.077 949.153 640.884 947.348 642.69 947.348C644.497 947.348 646.304 949.153 646.304 950.958Z" fill="white"/>
<path opacity="0.7" d="M542.039 904.462C542.039 905.666 540.834 906.869 539.63 906.869C538.425 906.869 537.221 905.666 537.221 904.462C537.221 903.259 538.425 902.056 539.63 902.056C540.834 902.056 542.039 903.259 542.039 904.462Z" fill="white"/>
<path opacity="0.7" d="M576.341 714.78C576.341 715.382 575.738 715.983 575.136 715.983C574.534 715.983 573.931 715.382 573.931 714.78C573.931 714.178 574.534 713.577 575.136 713.577C575.738 713.577 576.341 714.178 576.341 714.78Z" fill="white"/>
<path opacity="0.7" d="M559.179 584.865C559.179 586.068 557.975 587.272 556.77 587.272C555.566 587.272 554.361 586.068 554.361 584.865C554.361 583.662 555.566 582.459 556.77 582.459C557.975 582.459 559.179 583.06 559.179 584.865Z" fill="white"/>
<path opacity="0.7" d="M1097.42 951.785C1097.42 952.386 1096.82 952.988 1096.22 952.988C1095.62 952.988 1095.01 952.386 1095.01 951.785C1095.01 951.183 1095.62 950.582 1096.22 950.582C1096.82 950.582 1097.42 951.183 1097.42 951.785Z" fill="white"/>
<path opacity="0.7" d="M646.871 884.178C646.871 885.382 645.666 886.585 644.462 886.585C643.257 886.585 642.053 885.382 642.053 884.178C642.053 882.975 643.257 881.772 644.462 881.772C645.666 881.772 646.871 882.975 646.871 884.178Z" fill="white"/>
<path opacity="0.7" d="M718.098 647.008C718.098 648.212 716.894 649.415 715.689 649.415C714.485 649.415 713.28 648.212 713.28 647.008C713.28 645.805 714.485 644.602 715.689 644.602C717.496 644.602 718.098 645.805 718.098 647.008Z" fill="white"/>
<path opacity="0.7" d="M707.499 709.635C707.499 711.44 705.692 713.245 703.885 713.245C702.078 713.245 700.271 711.44 700.271 709.635C700.271 707.83 702.078 706.025 703.885 706.025C706.294 706.627 707.499 707.83 707.499 709.635Z" fill="white"/>
<path opacity="0.7" d="M258.915 695.507C258.915 694.304 259.517 693.703 260.722 693.703C261.926 693.703 262.529 694.304 262.529 695.507C262.529 696.711 261.926 697.312 260.722 697.312C260.12 697.312 258.915 696.711 258.915 695.507Z" fill="white"/>
<path opacity="0.7" d="M297.177 701.744C297.177 701.143 297.78 700.541 298.382 700.541C298.984 700.541 299.587 701.143 299.587 701.744C299.587 702.346 298.984 702.948 298.382 702.948C297.78 702.948 297.177 702.346 297.177 701.744Z" fill="white"/>
<path opacity="0.7" d="M184.933 691.507C184.933 690.906 185.536 690.304 186.138 690.304C186.74 690.304 187.343 690.906 187.343 691.507C187.343 692.109 186.74 692.71 186.138 692.71C185.536 693.312 184.933 692.71 184.933 691.507Z" fill="white"/>
<path opacity="0.7" d="M268.084 569.447C268.084 568.846 268.686 568.244 269.288 568.244C269.891 568.244 270.493 568.846 270.493 569.447C270.493 570.049 269.891 570.651 269.288 570.651C268.686 570.651 268.084 570.049 268.084 569.447Z" fill="white"/>
<path opacity="0.7" d="M1197.5 930.17C1197.5 929.569 1198.1 928.967 1198.71 928.967C1199.31 928.967 1199.91 929.569 1199.91 930.17C1199.91 930.772 1199.31 931.374 1198.71 931.374C1198.1 931.975 1197.5 931.374 1197.5 930.17Z" fill="white"/>
<path opacity="0.7" d="M39.4608 637.315C39.4608 636.713 40.0631 636.111 40.6654 636.111C41.2676 636.111 41.8699 636.713 41.8699 637.315C41.8699 637.916 41.2676 638.518 40.6654 638.518C40.0631 639.12 39.4608 638.518 39.4608 637.315Z" fill="white"/>
<path opacity="0.7" d="M170.033 722.037C170.033 721.436 170.635 720.834 171.237 720.834C171.84 720.834 172.442 721.436 172.442 722.037C172.442 722.639 171.84 723.241 171.237 723.241C170.635 723.241 170.033 722.639 170.033 722.037Z" fill="white"/>
<path opacity="0.7" d="M303.042 761.102C303.042 760.5 303.644 759.899 304.246 759.899C304.849 759.899 305.451 760.5 305.451 761.102C305.451 761.704 304.849 762.305 304.246 762.305C303.644 762.305 303.042 761.704 303.042 761.102Z" fill="white"/>
<path opacity="0.7" d="M329.613 681.827C329.613 680.624 330.215 680.022 331.42 680.022C332.625 680.022 333.227 680.624 333.227 681.827C333.227 683.031 332.625 683.632 331.42 683.632C330.818 683.632 329.613 683.031 329.613 681.827Z" fill="white"/>
<path opacity="0.7" d="M428.641 735.971C428.641 734.768 429.846 733.564 431.05 733.564C432.255 733.564 433.46 734.768 433.46 735.971C433.46 737.174 432.255 738.377 431.05 738.377C429.846 738.377 428.641 737.174 428.641 735.971Z" fill="white"/>
<path opacity="0.7" d="M331.009 745.797C331.009 744.593 332.213 743.39 333.418 743.39C334.622 743.39 335.827 744.593 335.827 745.797C335.827 747 334.622 748.203 333.418 748.203C332.213 748.203 331.009 747 331.009 745.797Z" fill="white"/>
<path opacity="0.7" d="M154.121 906.144C154.121 905.543 154.723 904.941 155.326 904.941C155.928 904.941 156.53 905.543 156.53 906.144C156.53 906.746 155.928 907.347 155.326 907.347C154.723 907.949 154.121 907.347 154.121 906.144Z" fill="white"/>
<path opacity="0.7" d="M250.911 889.645C250.911 889.043 251.513 888.442 252.116 888.442C252.718 888.442 253.32 889.043 253.32 889.645C253.32 890.246 252.718 890.848 252.116 890.848C251.513 890.848 250.911 890.246 250.911 889.645Z" fill="white"/>
<path opacity="0.7" d="M262.381 810.734C262.381 810.132 262.984 809.53 263.586 809.53C264.188 809.53 264.791 810.132 264.791 810.734C264.791 811.335 264.188 811.937 263.586 811.937C262.984 811.937 262.381 811.335 262.381 810.734Z" fill="white"/>
<path opacity="0.7" d="M319.126 922.223C319.126 921.622 319.728 921.02 320.331 921.02C320.933 921.02 321.535 921.622 321.535 922.223C321.535 922.825 320.933 923.426 320.331 923.426C319.728 924.028 319.126 923.426 319.126 922.223Z" fill="white"/>
<path opacity="0.7" d="M201.853 814.717C201.853 814.115 202.455 813.513 203.057 813.513C203.66 813.513 204.262 814.115 204.262 814.717C204.262 815.318 203.66 815.92 203.057 815.92C202.455 815.92 201.853 815.318 201.853 814.717Z" fill="white"/>
<path opacity="0.7" d="M349.429 953.369C349.429 952.768 350.032 952.166 350.634 952.166C351.236 952.166 351.839 952.768 351.839 953.369C351.839 953.971 351.236 954.573 350.634 954.573C350.032 954.573 349.429 953.971 349.429 953.369Z" fill="white"/>
<path opacity="0.7" d="M279.512 941.249C279.512 940.046 280.717 938.842 281.922 938.842C283.126 938.842 284.331 940.046 284.331 941.249C284.331 942.452 283.126 943.655 281.922 943.655C280.717 943.655 279.512 942.452 279.512 941.249Z" fill="white"/>
<path opacity="0.7" d="M306.756 815.589C306.756 814.385 307.96 813.182 309.165 813.182C310.369 813.182 311.574 814.385 311.574 815.589C311.574 816.792 310.369 817.995 309.165 817.995C307.96 817.995 306.756 816.792 306.756 815.589Z" fill="white"/>
<path opacity="0.7" d="M345.345 849.589C345.345 848.386 346.55 847.183 347.754 847.183C348.959 847.183 350.163 848.386 350.163 849.589C350.163 850.792 348.959 851.996 347.754 851.996C346.55 851.996 345.345 851.394 345.345 849.589Z" fill="white"/>
<path opacity="0.7" d="M439.987 895.633C439.987 894.429 441.191 893.226 442.396 893.226C443.6 893.226 444.805 894.429 444.805 895.633C444.805 896.836 443.6 898.039 442.396 898.039C441.191 898.039 439.987 897.437 439.987 895.633Z" fill="white"/>
<path opacity="0.7" d="M375.427 907.201C375.427 905.997 376.029 905.396 377.234 905.396C378.438 905.396 379.041 905.997 379.041 907.201C379.041 908.404 378.438 909.005 377.234 909.005C376.029 909.005 375.427 907.802 375.427 907.201Z" fill="white"/>
<path opacity="0.7" d="M279.863 664.668C279.863 664.067 280.465 663.465 281.067 663.465C281.669 663.465 282.272 664.067 282.272 664.668C282.272 665.27 281.669 665.872 281.067 665.872C280.465 666.473 279.863 665.872 279.863 664.668Z" fill="white"/>
<path opacity="0.7" d="M638.263 639.973C638.263 638.769 639.468 637.566 640.672 637.566C641.877 637.566 643.081 638.769 643.081 639.973C643.081 641.176 641.877 642.379 640.672 642.379C639.468 642.379 638.263 641.777 638.263 639.973Z" fill="white"/>
<path opacity="0.7" d="M172.653 560.714C172.653 560.113 173.255 559.511 173.858 559.511C174.46 559.511 175.062 560.113 175.062 560.714C175.062 561.316 174.46 561.917 173.858 561.917C173.255 561.917 172.653 561.316 172.653 560.714Z" fill="white"/>
<path opacity="0.7" d="M417.507 561.226C417.507 560.023 418.109 559.421 419.314 559.421C420.518 559.421 421.121 560.023 421.121 561.226C421.121 562.429 420.518 563.031 419.314 563.031C418.109 563.031 417.507 562.429 417.507 561.226Z" fill="white"/>
<path opacity="0.7" d="M44.1221 831.562C44.1221 830.96 44.7244 830.359 45.3268 830.359C45.9291 830.359 46.5314 830.96 46.5314 831.562C46.5314 832.163 45.9291 832.765 45.3268 832.765C44.7244 833.367 44.1221 832.765 44.1221 831.562Z" fill="white"/>
<path opacity="0.7" d="M16.3133 585.465C16.3133 584.864 16.9155 584.262 17.5178 584.262C18.1201 584.262 18.7224 584.864 18.7224 585.465C18.7224 586.067 18.1201 586.669 17.5178 586.669C16.9155 586.669 16.3133 586.067 16.3133 585.465Z" fill="white"/>
<path opacity="0.7" d="M135.682 687.726C135.682 686.523 136.887 685.32 138.091 685.32C139.296 685.32 140.501 686.523 140.501 687.726C140.501 688.929 139.296 690.133 138.091 690.133C136.887 690.133 135.682 688.929 135.682 687.726Z" fill="white"/>
<path opacity="0.7" d="M109.286 718.843C109.286 717.64 110.49 716.437 111.695 716.437C112.899 716.437 114.104 717.64 114.104 718.843C114.104 720.047 112.899 721.25 111.695 721.25C109.888 721.25 109.286 720.047 109.286 718.843Z" fill="white"/>
<path opacity="0.7" d="M137.766 558.907C137.766 557.704 138.971 556.501 140.175 556.501C141.38 556.501 142.584 557.704 142.584 558.907C142.584 560.111 141.38 561.314 140.175 561.314C138.971 561.314 137.766 560.111 137.766 558.907Z" fill="white"/>
<path opacity="0.7" d="M11.652 728.669C11.652 727.466 12.8565 726.263 14.061 726.263C15.2656 726.263 16.4701 727.466 16.4701 728.669C16.4701 729.872 15.2656 731.076 14.061 731.076C12.2542 731.076 11.652 729.872 11.652 728.669Z" fill="white"/>
<path opacity="0.7" d="M72.6437 569.842C72.6437 568.639 73.246 568.038 74.4505 568.038C75.6551 568.038 76.2573 568.639 76.2573 569.842C76.2573 571.046 75.6551 571.647 74.4505 571.647C73.246 571.647 72.6437 571.046 72.6437 569.842Z" fill="white"/>
<path opacity="0.7" d="M58.755 761.286C58.755 760.083 59.3573 759.482 60.5619 759.482C61.7665 759.482 62.3688 760.083 62.3688 761.286C62.3688 762.49 61.7665 763.091 60.5619 763.091C59.3573 763.091 58.755 762.49 58.755 761.286Z" fill="white"/>
<path opacity="0.7" d="M-0.833437 905.063C-0.833437 904.462 -0.231181 903.86 0.371093 903.86C0.973367 903.86 1.57562 904.462 1.57562 905.063C1.57562 905.665 0.973367 906.266 0.371093 906.266C-0.231181 906.868 -0.833437 906.266 -0.833437 905.063Z" fill="white"/>
<path opacity="0.7" d="M29.4684 936.209C29.4684 935.608 30.0707 935.006 30.673 935.006C31.2753 935.006 31.8776 935.608 31.8776 936.209C31.8776 936.811 31.2753 937.413 30.673 937.413C30.0707 937.413 29.4684 936.811 29.4684 936.209Z" fill="white"/>
<path opacity="0.7" d="M788.004 625.776C788.004 623.972 789.811 622.167 791.617 622.167C793.424 622.167 795.231 623.972 795.231 625.776C795.231 627.581 793.424 629.386 791.617 629.386C789.208 628.784 788.004 627.581 788.004 625.776Z" fill="white"/>
<g opacity="0.7">
<path opacity="0.7" d="M706.386 890.492L705.784 877.859L692.533 876.655L705.182 876.054L706.386 862.818L707.591 876.054L720.239 876.655L707.591 877.859L706.386 890.492Z" fill="white"/>
<path opacity="0.7" d="M700.966 882.671L705.182 877.257L700.966 871.241L706.387 876.054L712.41 870.639L707.592 876.655L712.41 882.671L706.387 877.858L700.966 882.671Z" fill="white"/>
</g>
<g opacity="0.7">
<path opacity="0.7" d="M841.525 923.646L840.321 911.013L827.672 909.809L840.321 909.208L841.525 895.972L842.73 909.208L855.378 909.809L842.73 911.013L841.525 923.646Z" fill="white"/>
<path opacity="0.7" d="M836.105 915.825L840.321 909.809L836.105 904.395L841.526 908.606L847.549 903.793L842.128 909.809L847.549 915.224L841.526 911.012L836.105 915.825Z" fill="white"/>
</g>
<g opacity="0.7">
<path opacity="0.7" d="M771.877 587.35L771.275 578.927L762.24 577.724H771.275L771.877 568.098L772.479 577.724H781.514L772.479 578.927L771.877 587.35Z" fill="white"/>
<path opacity="0.7" d="M768.261 581.936L771.273 578.326L768.261 574.115L771.875 577.725L776.091 574.115L772.477 578.326L776.091 581.936L771.875 578.928L768.261 581.936Z" fill="white"/>
</g>
<g opacity="0.7">
<path opacity="0.7" d="M1053.27 952.48L1052.67 944.058L1043.64 942.855H1052.07L1053.27 933.229L1053.87 942.855H1062.91L1053.87 944.058L1053.27 952.48Z" fill="white"/>
<path opacity="0.7" d="M1049.05 947.066L1052.07 943.457L1049.05 939.246L1053.27 942.254L1057.49 939.246L1053.87 942.855L1057.49 947.066L1053.27 944.058L1049.05 947.066Z" fill="white"/>
</g>
<g opacity="0.7">
<path opacity="0.7" d="M493.429 932.095L492.826 923.673L483.792 922.47H492.826L493.429 912.844L494.031 922.47H503.065L494.031 923.673L493.429 932.095Z" fill="white"/>
<path opacity="0.7" d="M489.211 926.681L492.824 923.072L489.211 918.861L493.427 921.869L497.643 918.861L494.029 922.47L497.643 926.681L493.427 923.673L489.211 926.681Z" fill="white"/>
</g>
<g opacity="0.7">
<path opacity="0.7" d="M253.006 594.46L251.802 582.428L239.154 580.623H251.802L253.006 566.786L254.211 580.623H266.859L254.211 582.428L253.006 594.46Z" fill="white"/>
<path opacity="0.7" d="M247.587 587.241L251.803 581.225L247.587 575.209L253.008 580.022L259.031 575.209L253.61 581.225L259.031 586.64L253.008 582.428L247.587 587.241Z" fill="white"/>
</g>
<g opacity="0.7">
<path opacity="0.7" d="M148.722 903.968L148.12 895.546L139.085 894.343H148.12L148.722 884.717L149.324 894.343H158.359L149.324 895.546L148.722 903.968Z" fill="white"/>
<path opacity="0.7" d="M145.106 898.554L148.118 894.945L145.106 890.733L148.72 893.741L152.936 890.733L149.322 894.343L152.936 898.554L148.72 895.546L145.106 898.554Z" fill="white"/>
</g>
<g opacity="0.7">
<path opacity="0.7" d="M351.308 714.208L350.706 705.184L341.672 704.583L350.706 703.981L351.308 694.957L351.911 703.981L360.945 704.583L351.911 705.184L351.308 714.208Z" fill="white"/>
<path opacity="0.7" d="M347.693 708.794L350.704 704.583L347.693 700.372L351.306 703.982L355.523 700.372L351.909 704.583L355.523 708.193L351.306 705.185L347.693 708.794Z" fill="white"/>
</g>
<g opacity="0.7">
<path opacity="0.7" d="M481.809 665.177L481.207 656.153L472.173 655.551L481.207 654.95L481.809 645.926L482.412 654.95L491.446 655.551L482.412 656.153L481.809 665.177Z" fill="white"/>
<path opacity="0.7" d="M478.194 659.763L481.205 655.552L478.194 651.341L481.807 654.95L486.023 651.341L482.41 655.552L486.023 659.162L481.807 656.154L478.194 659.763Z" fill="white"/>
</g>
<path opacity="0.7" d="M1155.04 513.568C1155.04 512.365 1155.64 511.763 1156.85 511.763C1158.05 511.763 1158.66 512.365 1158.66 513.568C1158.66 514.771 1158.05 515.373 1156.85 515.373C1156.25 515.373 1155.04 514.771 1155.04 513.568Z" fill="white"/>
<path opacity="0.7" d="M1081.06 509.568C1081.06 508.966 1081.66 508.364 1082.27 508.364C1082.87 508.364 1083.47 508.966 1083.47 509.568C1083.47 510.169 1082.87 510.771 1082.27 510.771C1081.66 511.372 1081.06 510.771 1081.06 509.568Z" fill="white"/>
<path opacity="0.7" d="M394.888 449.271C394.888 448.669 395.49 448.068 396.092 448.068C396.695 448.068 397.297 448.669 397.297 449.271C397.297 449.872 396.695 450.474 396.092 450.474C395.49 450.474 394.888 449.872 394.888 449.271Z" fill="white"/>
<path opacity="0.7" d="M1066.16 540.098C1066.16 539.496 1066.76 538.895 1067.36 538.895C1067.97 538.895 1068.57 539.496 1068.57 540.098C1068.57 540.699 1067.97 541.301 1067.36 541.301C1066.76 541.301 1066.16 540.699 1066.16 540.098Z" fill="white"/>
<path opacity="0.7" d="M1008.74 463.581C1008.74 462.378 1009.95 461.174 1011.15 461.174C1012.36 461.174 1013.56 462.378 1013.56 463.581C1013.56 464.784 1012.36 465.987 1011.15 465.987C1009.35 465.987 1008.74 464.784 1008.74 463.581Z" fill="white"/>
<path opacity="0.7" d="M1227.14 563.857C1227.14 562.654 1228.34 561.451 1229.54 561.451C1230.75 561.451 1231.95 562.654 1231.95 563.857C1231.95 565.06 1230.75 566.263 1229.54 566.263C1228.34 566.263 1227.14 565.06 1227.14 563.857Z" fill="white"/>
<path opacity="0.7" d="M1175.99 482.729C1175.99 482.127 1176.59 481.526 1177.19 481.526C1177.8 481.526 1178.4 482.127 1178.4 482.729C1178.4 483.33 1177.8 483.932 1177.19 483.932C1176.59 484.534 1175.99 483.932 1175.99 482.729Z" fill="white"/>
<path opacity="0.7" d="M519.107 483.647C519.107 483.045 519.709 482.444 520.312 482.444C520.914 482.444 521.516 483.045 521.516 483.647C521.516 484.248 520.914 484.85 520.312 484.85C519.709 484.85 519.107 484.248 519.107 483.647Z" fill="white"/>
<path opacity="0.7" d="M552.937 527.699C552.937 526.496 554.141 525.292 555.346 525.292C556.551 525.292 557.755 526.496 557.755 527.699C557.755 528.902 556.551 530.105 555.346 530.105C554.141 530.105 552.937 528.902 552.937 527.699Z" fill="white"/>
<path opacity="0.7" d="M612.178 547.746C612.178 546.542 613.382 545.339 614.587 545.339C615.792 545.339 616.996 546.542 616.996 547.746C616.996 548.949 615.792 550.152 614.587 550.152C613.382 550.152 612.178 548.949 612.178 547.746Z" fill="white"/>
<path opacity="0.7" d="M648.479 455.642C648.479 455.04 649.082 454.438 649.684 454.438C650.286 454.438 650.888 455.04 650.888 455.642C650.888 456.243 650.286 456.845 649.684 456.845C649.082 456.845 648.479 456.243 648.479 455.642Z" fill="white"/>
<path opacity="0.7" d="M832.134 495.142C832.134 493.337 833.941 491.533 835.748 491.533C837.555 491.533 839.362 493.337 839.362 495.142C839.362 496.947 837.555 498.752 835.748 498.752C833.941 498.15 832.134 496.947 832.134 495.142Z" fill="white"/>
<path opacity="0.7" d="M873.949 502.677C873.949 502.076 874.551 501.474 875.153 501.474C875.756 501.474 876.358 502.076 876.358 502.677C876.358 503.279 875.756 503.881 875.153 503.881C874.551 503.881 873.949 503.279 873.949 502.677Z" fill="white"/>
<path opacity="0.7" d="M943.366 434.104C943.366 433.503 943.968 432.901 944.57 432.901C945.173 432.901 945.775 433.503 945.775 434.104C945.775 434.706 945.173 435.308 944.57 435.308C943.968 435.909 943.366 435.308 943.366 434.104Z" fill="white"/>
<path opacity="0.7" d="M746.199 522.938C746.199 522.336 746.801 521.735 747.403 521.735C748.006 521.735 748.608 522.336 748.608 522.938C748.608 523.539 748.006 524.141 747.403 524.141C746.801 524.141 746.199 523.539 746.199 522.938Z" fill="white"/>
<path opacity="0.7" d="M879.813 562.035C879.813 561.433 880.416 560.832 881.018 560.832C881.62 560.832 882.222 561.433 882.222 562.035C882.222 562.636 881.62 563.238 881.018 563.238C880.416 563.238 879.813 562.636 879.813 562.035Z" fill="white"/>
<path opacity="0.7" d="M1031.81 505.787C1031.81 504.583 1033.01 503.38 1034.22 503.38C1035.42 503.38 1036.63 504.583 1036.63 505.787C1036.63 506.99 1035.42 508.193 1034.22 508.193C1033.01 508.193 1031.81 506.99 1031.81 505.787Z" fill="white"/>
<path opacity="0.7" d="M1005.41 536.904C1005.41 535.701 1006.62 534.497 1007.82 534.497C1009.03 534.497 1010.23 535.701 1010.23 536.904C1010.23 538.107 1009.03 539.31 1007.82 539.31C1006.62 539.31 1005.41 538.107 1005.41 536.904Z" fill="white"/>
<path opacity="0.7" d="M907.78 546.73C907.78 545.526 908.984 544.323 910.189 544.323C911.394 544.323 912.598 545.526 912.598 546.73C912.598 547.933 911.394 549.136 910.189 549.136C908.984 549.136 907.78 547.933 907.78 546.73Z" fill="white"/>
<path opacity="0.7" d="M790.048 447.699C790.048 445.894 791.855 444.09 793.662 444.09C795.469 444.09 797.276 445.894 797.276 447.699C797.276 449.504 795.469 451.309 793.662 451.309C791.253 451.309 790.048 450.106 790.048 447.699Z" fill="white"/>
<path opacity="0.7" d="M815.132 564.72C815.132 562.915 816.939 561.11 818.746 561.11C820.553 561.11 822.36 562.915 822.36 564.72C822.36 566.524 820.553 568.329 818.746 568.329C816.939 568.329 815.132 566.524 815.132 564.72Z" fill="white"/>
<path opacity="0.7" d="M760.514 548.472C760.514 547.269 761.718 546.065 762.923 546.065C764.128 546.065 765.332 547.269 765.332 548.472C765.332 549.675 764.128 550.878 762.923 550.878C761.718 550.878 760.514 549.675 760.514 548.472Z" fill="white"/>
<path opacity="0.7" d="M720.261 534.231C720.261 533.028 720.864 532.426 722.068 532.426C723.273 532.426 723.875 533.028 723.875 534.231C723.875 535.434 723.273 536.036 722.068 536.036C721.466 536.036 720.261 534.832 720.261 534.231Z" fill="white"/>
<path opacity="0.7" d="M669.294 573.508C669.294 574.11 668.691 574.712 668.089 574.712C667.487 574.712 666.884 574.11 666.884 573.508C666.884 572.907 667.487 572.305 668.089 572.305C668.691 572.305 669.294 572.907 669.294 573.508Z" fill="white"/>
<path opacity="0.7" d="M576.341 484.78C576.341 485.382 575.738 485.983 575.136 485.983C574.534 485.983 573.931 485.382 573.931 484.78C573.931 484.178 574.534 483.577 575.136 483.577C575.738 483.577 576.341 484.178 576.341 484.78Z" fill="white"/>
<path opacity="0.7" d="M707.499 479.635C707.499 481.44 705.692 483.245 703.885 483.245C702.078 483.245 700.271 481.44 700.271 479.635C700.271 477.83 702.078 476.025 703.885 476.025C706.294 476.627 707.499 477.83 707.499 479.635Z" fill="white"/>
<path opacity="0.7" d="M258.915 465.507C258.915 464.304 259.517 463.703 260.722 463.703C261.926 463.703 262.529 464.304 262.529 465.507C262.529 466.711 261.926 467.312 260.722 467.312C260.12 467.312 258.915 466.711 258.915 465.507Z" fill="white"/>
<path opacity="0.7" d="M297.177 471.744C297.177 471.143 297.78 470.541 298.382 470.541C298.984 470.541 299.587 471.143 299.587 471.744C299.587 472.346 298.984 472.948 298.382 472.948C297.78 472.948 297.177 472.346 297.177 471.744Z" fill="white"/>
<path opacity="0.7" d="M184.933 461.507C184.933 460.906 185.536 460.304 186.138 460.304C186.74 460.304 187.343 460.906 187.343 461.507C187.343 462.109 186.74 462.71 186.138 462.71C185.536 463.312 184.933 462.71 184.933 461.507Z" fill="white"/>
<path opacity="0.7" d="M170.033 492.037C170.033 491.436 170.635 490.834 171.237 490.834C171.84 490.834 172.442 491.436 172.442 492.037C172.442 492.639 171.84 493.241 171.237 493.241C170.635 493.241 170.033 492.639 170.033 492.037Z" fill="white"/>
<path opacity="0.7" d="M303.042 531.102C303.042 530.5 303.644 529.899 304.246 529.899C304.849 529.899 305.451 530.5 305.451 531.102C305.451 531.704 304.849 532.305 304.246 532.305C303.644 532.305 303.042 531.704 303.042 531.102Z" fill="white"/>
<path opacity="0.7" d="M329.613 451.827C329.613 450.624 330.215 450.022 331.42 450.022C332.625 450.022 333.227 450.624 333.227 451.827C333.227 453.031 332.625 453.632 331.42 453.632C330.818 453.632 329.613 453.031 329.613 451.827Z" fill="white"/>
<path opacity="0.7" d="M428.641 505.971C428.641 504.768 429.846 503.564 431.05 503.564C432.255 503.564 433.46 504.768 433.46 505.971C433.46 507.174 432.255 508.377 431.05 508.377C429.846 508.377 428.641 507.174 428.641 505.971Z" fill="white"/>
<path opacity="0.7" d="M331.009 515.797C331.009 514.593 332.213 513.39 333.418 513.39C334.622 513.39 335.827 514.593 335.827 515.797C335.827 517 334.622 518.203 333.418 518.203C332.213 518.203 331.009 517 331.009 515.797Z" fill="white"/>
<path opacity="0.7" d="M279.863 434.668C279.863 434.067 280.465 433.465 281.067 433.465C281.669 433.465 282.272 434.067 282.272 434.668C282.272 435.27 281.669 435.872 281.067 435.872C280.465 436.473 279.863 435.872 279.863 434.668Z" fill="white"/>
<path opacity="0.7" d="M135.682 457.726C135.682 456.523 136.887 455.32 138.091 455.32C139.296 455.32 140.501 456.523 140.501 457.726C140.501 458.929 139.296 460.133 138.091 460.133C136.887 460.133 135.682 458.929 135.682 457.726Z" fill="white"/>
<path opacity="0.7" d="M109.286 488.843C109.286 487.64 110.49 486.437 111.695 486.437C112.899 486.437 114.104 487.64 114.104 488.843C114.104 490.047 112.899 491.25 111.695 491.25C109.888 491.25 109.286 490.047 109.286 488.843Z" fill="white"/>
<path opacity="0.7" d="M11.652 498.669C11.652 497.466 12.8565 496.263 14.061 496.263C15.2656 496.263 16.4701 497.466 16.4701 498.669C16.4701 499.872 15.2656 501.076 14.061 501.076C12.2542 501.076 11.652 499.872 11.652 498.669Z" fill="white"/>
<path opacity="0.7" d="M58.755 531.286C58.755 530.083 59.3573 529.482 60.5619 529.482C61.7665 529.482 62.3688 530.083 62.3688 531.286C62.3688 532.49 61.7665 533.091 60.5619 533.091C59.3573 533.091 58.755 532.49 58.755 531.286Z" fill="white"/>
<g opacity="0.7">
<path opacity="0.7" d="M351.308 484.208L350.706 475.184L341.672 474.583L350.706 473.981L351.308 464.957L351.911 473.981L360.945 474.583L351.911 475.184L351.308 484.208Z" fill="white"/>
<path opacity="0.7" d="M347.693 478.794L350.704 474.583L347.693 470.372L351.306 473.982L355.523 470.372L351.909 474.583L355.523 478.193L351.306 475.185L347.693 478.794Z" fill="white"/>
</g>
<g opacity="0.7">
<path opacity="0.7" d="M481.809 435.177L481.207 426.153L472.173 425.551L481.207 424.95L481.809 415.926L482.412 424.95L491.446 425.551L482.412 426.153L481.809 435.177Z" fill="white"/>
<path opacity="0.7" d="M478.194 429.763L481.205 425.552L478.194 421.341L481.807 424.95L486.023 421.341L482.41 425.552L486.023 429.162L481.807 426.154L478.194 429.763Z" fill="white"/>
</g>
<g opacity="0.7">
<path opacity="0.7" d="M414.318 900.138L413.113 891.715L404.681 890.512H413.113L414.318 880.886L414.92 890.512H423.954L414.92 891.715L414.318 900.138Z" fill="white"/>
<path opacity="0.7" d="M410.1 894.724L413.111 891.114L410.1 886.903L413.713 889.911L418.532 886.903L414.918 890.513L418.532 894.724L414.316 891.716L410.1 894.724Z" fill="white"/>
</g>
<path opacity="0.7" d="M1583.14 429.184C1583.14 429.786 1582.53 430.387 1581.93 430.387C1581.33 430.387 1580.73 429.786 1580.73 429.184C1580.73 428.583 1581.33 427.981 1581.93 427.981C1582.53 427.981 1583.14 428.583 1583.14 429.184Z" fill="white"/>
<path opacity="0.7" d="M1513.87 276.367C1513.87 278.171 1512.07 279.976 1510.26 279.976C1508.45 279.976 1506.65 278.171 1506.65 276.367C1506.65 274.562 1508.45 272.757 1510.26 272.757C1512.07 273.358 1513.87 274.562 1513.87 276.367Z" fill="white"/>
<path opacity="0.7" d="M1471.71 270.952C1471.71 271.554 1471.11 272.156 1470.51 272.156C1469.9 272.156 1469.3 271.554 1469.3 270.952C1469.3 270.351 1469.9 269.749 1470.51 269.749C1471.11 269.749 1471.71 270.351 1471.71 270.952Z" fill="white"/>
<path opacity="0.7" d="M1397.63 127.769C1397.63 128.371 1397.03 128.973 1396.43 128.973C1395.82 128.973 1395.22 128.371 1395.22 127.769C1395.22 127.168 1395.82 126.566 1396.43 126.566C1397.03 125.964 1397.63 126.566 1397.63 127.769Z" fill="white"/>
<path opacity="0.7" d="M1508.45 401.502C1508.45 402.103 1507.85 402.705 1507.24 402.705C1506.64 402.705 1506.04 402.103 1506.04 401.502C1506.04 400.9 1506.64 400.298 1507.24 400.298C1507.85 400.298 1508.45 400.9 1508.45 401.502Z" fill="white"/>
<path opacity="0.7" d="M1438.59 372.023C1438.59 372.625 1437.98 373.226 1437.38 373.226C1436.78 373.226 1436.18 372.625 1436.18 372.023C1436.18 371.421 1436.78 370.82 1437.38 370.82C1437.98 370.82 1438.59 371.421 1438.59 372.023Z" fill="white"/>
<path opacity="0.7" d="M1598.19 421.355C1598.19 421.956 1597.59 422.558 1596.99 422.558C1596.39 422.558 1595.78 421.956 1595.78 421.355C1595.78 420.753 1596.39 420.152 1596.99 420.152C1597.59 420.152 1598.19 420.753 1598.19 421.355Z" fill="white"/>
<path opacity="0.7" d="M1406.06 343.145C1406.06 343.746 1405.46 344.348 1404.86 344.348C1404.25 344.348 1403.65 343.746 1403.65 343.145C1403.65 342.543 1404.25 341.942 1404.86 341.942C1405.46 341.34 1406.06 341.942 1406.06 343.145Z" fill="white"/>
<path opacity="0.7" d="M1598.19 243.88C1598.19 244.481 1597.59 245.083 1596.99 245.083C1596.39 245.083 1595.78 244.481 1595.78 243.88C1595.78 243.278 1596.39 242.676 1596.99 242.676C1597.59 242.676 1598.19 243.278 1598.19 243.88Z" fill="white"/>
<path opacity="0.7" d="M1462.68 211.994C1462.68 212.596 1462.07 213.197 1461.47 213.197C1460.87 213.197 1460.27 212.596 1460.27 211.994C1460.27 211.393 1460.87 210.791 1461.47 210.791C1462.07 210.791 1462.68 211.393 1462.68 211.994Z" fill="white"/>
<path opacity="0.7" d="M1435.57 228.84C1435.57 230.043 1434.37 231.246 1433.16 231.246C1431.96 231.246 1430.75 230.043 1430.75 228.84C1430.75 227.637 1431.96 226.433 1433.16 226.433C1434.37 226.433 1435.57 227.637 1435.57 228.84Z" fill="white"/>
<path opacity="0.7" d="M1558.44 321.487C1558.44 323.292 1556.63 325.097 1554.83 325.097C1553.02 325.097 1551.21 323.292 1551.21 321.487C1551.21 319.683 1553.02 317.878 1554.83 317.878C1557.23 317.878 1558.44 319.081 1558.44 321.487Z" fill="white"/>
<path opacity="0.7" d="M1386.79 198.76C1386.79 199.963 1386.19 200.564 1384.98 200.564C1383.78 200.564 1383.18 199.963 1383.18 198.76C1383.18 197.556 1383.78 196.955 1384.98 196.955C1385.58 196.955 1386.79 197.556 1386.79 198.76Z" fill="white"/>
<path opacity="0.7" d="M1508.45 80.844C1508.45 81.4456 1507.85 82.0472 1507.24 82.0472C1506.64 82.0472 1506.04 81.4456 1506.04 80.844C1506.04 80.2424 1506.64 79.6407 1507.24 79.6407C1507.85 79.6407 1508.45 80.2424 1508.45 80.844Z" fill="white"/>
<path opacity="0.7" d="M1501.23 160.256C1501.23 160.858 1500.62 161.46 1500.02 161.46C1499.42 161.46 1498.82 160.858 1498.82 160.256C1498.82 159.655 1499.42 159.053 1500.02 159.053C1500.62 159.053 1501.23 159.655 1501.23 160.256Z" fill="white"/>
<path opacity="0.7" d="M1438.59 51.9658C1438.59 52.5674 1437.98 53.1691 1437.38 53.1691C1436.78 53.1691 1436.18 52.5674 1436.18 51.9658C1436.18 51.3642 1436.78 50.7626 1437.38 50.7626C1437.98 50.161 1438.59 50.7626 1438.59 51.9658Z" fill="white"/>
<path opacity="0.7" d="M1560.25 154.24C1560.92 154.24 1561.46 153.702 1561.46 153.037C1561.46 152.373 1560.92 151.834 1560.25 151.834C1559.59 151.834 1559.05 152.373 1559.05 153.037C1559.05 153.702 1559.59 154.24 1560.25 154.24Z" fill="white"/>
<path opacity="0.7" d="M1406.66 22.4869C1406.66 23.0885 1406.06 23.6901 1405.46 23.6901C1404.86 23.6901 1404.26 23.0885 1404.26 22.4869C1404.26 21.8853 1404.86 21.2837 1405.46 21.2837C1406.06 21.2837 1406.66 21.8853 1406.66 22.4869Z" fill="white"/>
<path opacity="0.7" d="M1476.53 30.9104C1476.53 32.1136 1475.33 33.3168 1474.12 33.3168C1472.92 33.3168 1471.71 32.1136 1471.71 30.9104C1471.71 29.7071 1472.92 28.5039 1474.12 28.5039C1475.33 28.5039 1476.53 29.7071 1476.53 30.9104Z" fill="white"/>
<path opacity="0.7" d="M1456.05 157.849C1456.05 159.052 1454.85 160.256 1453.64 160.256C1452.44 160.256 1451.23 159.052 1451.23 157.849C1451.23 156.646 1452.44 155.443 1453.64 155.443C1455.45 155.443 1456.05 156.646 1456.05 157.849Z" fill="white"/>
<path opacity="0.7" d="M1415.7 125.964C1415.7 127.167 1414.49 128.37 1413.29 128.37C1412.08 128.37 1410.88 127.167 1410.88 125.964C1410.88 124.761 1412.08 123.557 1413.29 123.557C1415.09 123.557 1415.7 124.159 1415.7 125.964Z" fill="white"/>
<path opacity="0.7" d="M1460.27 115.135C1460.27 116.338 1459.67 116.94 1458.46 116.94C1457.26 116.94 1456.66 116.338 1456.66 115.135C1456.66 113.932 1457.26 113.33 1458.46 113.33C1459.06 113.33 1460.27 113.932 1460.27 115.135Z" fill="white"/>
<path opacity="0.7" d="M1488.57 353.974C1488.57 354.576 1487.97 355.178 1487.37 355.178C1486.77 355.178 1486.17 354.576 1486.17 353.974C1486.17 353.373 1486.77 352.771 1487.37 352.771C1487.97 352.771 1488.57 353.373 1488.57 353.974Z" fill="white"/>
<path opacity="0.7" d="M1541.58 57.3805C1541.58 57.9821 1540.97 58.5837 1540.37 58.5837C1539.77 58.5837 1539.17 57.9821 1539.17 57.3805C1539.17 56.7789 1539.77 56.1772 1540.37 56.1772C1540.97 56.1772 1541.58 56.7789 1541.58 57.3805Z" fill="white"/>
<path opacity="0.7" d="M1527.12 205.978C1527.12 207.783 1525.32 209.588 1523.51 209.588C1521.7 209.588 1519.9 207.783 1519.9 205.978C1519.9 204.174 1521.7 202.369 1523.51 202.369C1525.32 202.369 1527.12 204.174 1527.12 205.978Z" fill="white"/>
<path opacity="0.7" d="M1560.85 150.63C1560.85 151.833 1559.65 153.037 1558.44 153.037C1557.24 153.037 1556.03 151.833 1556.03 150.63C1556.03 149.427 1557.24 148.224 1558.44 148.224C1560.25 148.224 1560.85 149.427 1560.85 150.63Z" fill="white"/>
<path opacity="0.7" d="M1602.41 57.3806C1602.41 58.5838 1601.2 59.787 1600 59.787C1598.79 59.787 1597.59 58.5838 1597.59 57.3806C1597.59 56.1774 1598.79 54.9741 1600 54.9741C1601.81 54.9741 1602.41 56.1774 1602.41 57.3806Z" fill="white"/>
<path opacity="0.7" d="M1582.53 219.214C1582.53 220.417 1581.33 221.62 1580.12 221.62C1578.92 221.62 1577.71 220.417 1577.71 219.214C1577.71 218.01 1578.92 216.807 1580.12 216.807C1581.33 216.807 1582.53 218.01 1582.53 219.214Z" fill="white"/>
<path opacity="0.7" d="M1563.26 373.226C1563.26 375.031 1561.45 376.836 1559.65 376.836C1557.84 376.836 1556.03 375.031 1556.03 373.226C1556.03 371.422 1557.84 369.617 1559.65 369.617C1562.06 370.218 1563.26 371.422 1563.26 373.226Z" fill="white"/>
<g opacity="0.7">
<path opacity="0.7" d="M1494.6 78.4366L1495.81 91.0705L1508.45 92.2737L1495.81 92.8753L1494.6 106.111L1493.4 92.8753L1480.75 92.2737L1493.4 91.0705L1494.6 78.4366Z" fill="white"/>
<path opacity="0.7" d="M1500.02 86.2578L1495.8 92.2739L1500.02 97.6884L1494.6 93.4771L1488.58 98.29L1494 92.2739L1488.58 86.8594L1494.6 91.0707L1500.02 86.2578Z" fill="white"/>
</g>
<g opacity="0.7">
<path opacity="0.7" d="M1581.93 410.527L1582.54 418.949L1591.57 420.152H1582.54L1581.93 429.778L1581.33 420.152H1572.3L1581.33 418.949L1581.93 410.527Z" fill="white"/>
<path opacity="0.7" d="M1585.55 415.941L1582.54 419.55L1585.55 423.762L1581.94 420.152L1577.72 423.762L1581.33 419.55L1577.72 415.941L1581.94 418.949L1585.55 415.941Z" fill="white"/>
</g>
<path opacity="0.7" d="M1568.5 886.598C1568.5 885.996 1569.1 885.395 1569.7 885.395C1570.3 885.395 1570.91 885.996 1570.91 886.598C1570.91 887.199 1570.3 887.801 1569.7 887.801C1569.1 887.801 1568.5 887.801 1568.5 886.598Z" fill="white"/>
<path opacity="0.7" d="M1489.11 713.647C1489.11 713.045 1489.71 712.444 1490.31 712.444C1490.91 712.444 1491.52 713.045 1491.52 713.647C1491.52 714.248 1490.91 714.85 1490.31 714.85C1489.71 714.85 1489.11 714.248 1489.11 713.647Z" fill="white"/>
<path opacity="0.7" d="M1460.01 581.35C1460.01 580.748 1460.61 580.147 1461.22 580.147C1461.82 580.147 1462.42 580.748 1462.42 581.35C1462.42 581.951 1461.82 582.553 1461.22 582.553C1460.61 582.553 1460.01 581.951 1460.01 581.35Z" fill="white"/>
<path opacity="0.7" d="M1385.21 637.585C1385.21 636.983 1385.81 636.382 1386.42 636.382C1387.02 636.382 1387.62 636.983 1387.62 637.585C1387.62 638.187 1387.02 638.788 1386.42 638.788C1385.81 639.39 1385.21 638.788 1385.21 637.585Z" fill="white"/>
<path opacity="0.7" d="M1488.61 632.953C1488.61 631.75 1489.81 630.547 1491.02 630.547C1492.22 630.547 1493.43 631.75 1493.43 632.953C1493.43 634.157 1492.22 635.36 1491.02 635.36C1489.81 635.36 1488.61 634.157 1488.61 632.953Z" fill="white"/>
<path opacity="0.7" d="M1522.94 757.699C1522.94 756.496 1524.14 755.292 1525.35 755.292C1526.55 755.292 1527.76 756.496 1527.76 757.699C1527.76 758.902 1526.55 760.105 1525.35 760.105C1524.14 760.105 1522.94 758.902 1522.94 757.699Z" fill="white"/>
<path opacity="0.7" d="M1492.6 569.842C1492.6 569.24 1493.2 568.639 1493.8 568.639C1494.4 568.639 1495 569.24 1495 569.842C1495 570.444 1494.4 571.045 1493.8 571.045C1493.2 571.045 1492.6 570.444 1492.6 569.842Z" fill="white"/>
<path opacity="0.7" d="M1442.84 901.547C1442.84 900.945 1443.44 900.344 1444.04 900.344C1444.65 900.344 1445.25 900.945 1445.25 901.547C1445.25 902.149 1444.65 902.75 1444.04 902.75C1443.44 902.75 1442.84 902.149 1442.84 901.547Z" fill="white"/>
<path opacity="0.7" d="M1454.31 822.636C1454.31 822.034 1454.91 821.433 1455.52 821.433C1456.12 821.433 1456.72 822.034 1456.72 822.636C1456.72 823.237 1456.12 823.839 1455.52 823.839C1454.91 823.839 1454.31 823.237 1454.31 822.636Z" fill="white"/>
<path opacity="0.7" d="M1511.05 934.125C1511.05 933.523 1511.65 932.922 1512.26 932.922C1512.86 932.922 1513.46 933.523 1513.46 934.125C1513.46 934.727 1512.86 935.328 1512.26 935.328C1511.65 935.93 1511.05 935.328 1511.05 934.125Z" fill="white"/>
<path opacity="0.7" d="M1471.44 953.151C1471.44 951.947 1472.64 950.744 1473.84 950.744C1475.05 950.744 1476.25 951.947 1476.25 953.151C1476.25 954.354 1475.05 955.557 1473.84 955.557C1472.64 955.557 1471.44 954.354 1471.44 953.151Z" fill="white"/>
<path opacity="0.7" d="M1582.18 777.746C1582.18 776.542 1583.38 775.339 1584.59 775.339C1585.79 775.339 1587 776.542 1587 777.746C1587 778.949 1585.79 780.152 1584.59 780.152C1583.38 780.152 1582.18 778.949 1582.18 777.746Z" fill="white"/>
<path opacity="0.7" d="M1511.52 824.37C1511.52 824.971 1510.92 825.573 1510.31 825.573C1509.71 825.573 1509.11 824.971 1509.11 824.37C1509.11 823.768 1509.71 823.167 1510.31 823.167C1510.92 822.565 1511.52 823.167 1511.52 824.37Z" fill="white"/>
<path opacity="0.7" d="M1512.04 904.462C1512.04 905.666 1510.83 906.869 1509.63 906.869C1508.43 906.869 1507.22 905.666 1507.22 904.462C1507.22 903.259 1508.43 902.056 1509.63 902.056C1510.83 902.056 1512.04 903.259 1512.04 904.462Z" fill="white"/>
<path opacity="0.7" d="M1546.34 714.78C1546.34 715.382 1545.74 715.983 1545.14 715.983C1544.53 715.983 1543.93 715.382 1543.93 714.78C1543.93 714.178 1544.53 713.577 1545.14 713.577C1545.74 713.577 1546.34 714.178 1546.34 714.78Z" fill="white"/>
<path opacity="0.7" d="M1529.18 584.865C1529.18 586.068 1527.97 587.272 1526.77 587.272C1525.57 587.272 1524.36 586.068 1524.36 584.865C1524.36 583.662 1525.57 582.459 1526.77 582.459C1527.97 582.459 1529.18 583.06 1529.18 584.865Z" fill="white"/>
<path opacity="0.7" d="M1398.64 735.971C1398.64 734.768 1399.85 733.564 1401.05 733.564C1402.25 733.564 1403.46 734.768 1403.46 735.971C1403.46 737.174 1402.25 738.377 1401.05 738.377C1399.85 738.377 1398.64 737.174 1398.64 735.971Z" fill="white"/>
<path opacity="0.7" d="M1409.99 895.633C1409.99 894.429 1411.19 893.226 1412.4 893.226C1413.6 893.226 1414.8 894.429 1414.8 895.633C1414.8 896.836 1413.6 898.039 1412.4 898.039C1411.19 898.039 1409.99 897.437 1409.99 895.633Z" fill="white"/>
<path opacity="0.7" d="M1387.51 561.226C1387.51 560.023 1388.11 559.421 1389.31 559.421C1390.52 559.421 1391.12 560.023 1391.12 561.226C1391.12 562.429 1390.52 563.031 1389.31 563.031C1388.11 563.031 1387.51 562.429 1387.51 561.226Z" fill="white"/>
<g opacity="0.7">
<path opacity="0.7" d="M1463.43 932.095L1462.83 923.673L1453.79 922.47H1462.83L1463.43 912.844L1464.03 922.47H1473.07L1464.03 923.673L1463.43 932.095Z" fill="white"/>
<path opacity="0.7" d="M1459.21 926.681L1462.82 923.072L1459.21 918.861L1463.43 921.869L1467.64 918.861L1464.03 922.47L1467.64 926.681L1463.43 923.673L1459.21 926.681Z" fill="white"/>
</g>
<g opacity="0.7">
<path opacity="0.7" d="M1451.81 665.177L1451.21 656.153L1442.17 655.551L1451.21 654.95L1451.81 645.926L1452.41 654.95L1461.45 655.551L1452.41 656.153L1451.81 665.177Z" fill="white"/>
<path opacity="0.7" d="M1448.19 659.763L1451.21 655.552L1448.19 651.341L1451.81 654.95L1456.02 651.341L1452.41 655.552L1456.02 659.162L1451.81 656.154L1448.19 659.763Z" fill="white"/>
</g>
<path opacity="0.7" d="M1489.11 483.647C1489.11 483.045 1489.71 482.444 1490.31 482.444C1490.91 482.444 1491.52 483.045 1491.52 483.647C1491.52 484.248 1490.91 484.85 1490.31 484.85C1489.71 484.85 1489.11 484.248 1489.11 483.647Z" fill="white"/>
<path opacity="0.7" d="M1522.94 527.699C1522.94 526.496 1524.14 525.292 1525.35 525.292C1526.55 525.292 1527.76 526.496 1527.76 527.699C1527.76 528.902 1526.55 530.105 1525.35 530.105C1524.14 530.105 1522.94 528.902 1522.94 527.699Z" fill="white"/>
<path opacity="0.7" d="M1582.18 547.746C1582.18 546.542 1583.38 545.339 1584.59 545.339C1585.79 545.339 1587 546.542 1587 547.746C1587 548.949 1585.79 550.152 1584.59 550.152C1583.38 550.152 1582.18 548.949 1582.18 547.746Z" fill="white"/>
<path opacity="0.7" d="M1546.34 484.78C1546.34 485.382 1545.74 485.983 1545.14 485.983C1544.53 485.983 1543.93 485.382 1543.93 484.78C1543.93 484.178 1544.53 483.577 1545.14 483.577C1545.74 483.577 1546.34 484.178 1546.34 484.78Z" fill="white"/>
<path opacity="0.7" d="M1398.64 505.971C1398.64 504.768 1399.85 503.564 1401.05 503.564C1402.25 503.564 1403.46 504.768 1403.46 505.971C1403.46 507.174 1402.25 508.377 1401.05 508.377C1399.85 508.377 1398.64 507.174 1398.64 505.971Z" fill="white"/>
<g opacity="0.7">
<path opacity="0.7" d="M1451.81 435.177L1451.21 426.153L1442.17 425.551L1451.21 424.95L1451.81 415.926L1452.41 424.95L1461.45 425.551L1452.41 426.153L1451.81 435.177Z" fill="white"/>
<path opacity="0.7" d="M1448.19 429.763L1451.21 425.552L1448.19 421.341L1451.81 424.95L1456.02 421.341L1452.41 425.552L1456.02 429.162L1451.81 426.154L1448.19 429.763Z" fill="white"/>
</g>
<g opacity="0.7">
<path opacity="0.7" d="M1384.32 900.138L1383.11 891.715L1374.68 890.512H1383.11L1384.32 880.886L1384.92 890.512H1393.95L1384.92 891.715L1384.32 900.138Z" fill="white"/>
<path opacity="0.7" d="M1380.1 894.724L1383.11 891.114L1380.1 886.903L1383.71 889.911L1388.53 886.903L1384.92 890.513L1388.53 894.724L1384.32 891.716L1380.1 894.724Z" fill="white"/>
</g>
<defs>
<radialGradient id="paint0_radial_202_2" cx="0" cy="0" r="1" gradientUnits="userSpaceOnUse" gradientTransform="translate(1294.29 114.832) rotate(56.4927) scale(965.612 1210.89)">
<stop stop-color="#890048"/>
<stop offset="0.5056" stop-color="#540048"/>
<stop offset="1" stop-color="#000027"/>
</radialGradient>
</defs>
</svg>
